<svg width="28" height="28" viewBox="0 0 28 28" fill="none" xmlns="http://www.w3.org/2000/svg">
    <path d="M14 1C11.4288 1 8.91543 1.76244 6.77759 3.1909C4.63975 4.61935 2.97351 6.64968 1.98957 9.02512C1.00563 11.4006 0.748189 14.0144 1.2498 16.5362C1.75141 19.0579 2.98953 21.3743 4.80762 23.1924C6.6257 25.0105 8.94208 26.2486 11.4638 26.7502C13.9856 27.2518 16.5995 26.9944 18.9749 26.0104C21.3503 25.0265 23.3807 23.3603 24.8091 21.2224C26.2376 19.0846 27 16.5712 27 14C26.9964 10.5533 25.6256 7.24882 23.1884 4.81163C20.7512 2.37445 17.4467 1.00364 14 1Z"
          stroke="var(--text)" stroke-width="2"/>
    <path d="M19.9246 13.6176C19.8742 13.4962 19.8005 13.3859 19.7075 13.2931L15.7075 9.29306C15.5199 9.10541 15.2654 9 15 9C14.7346 9 14.4801 9.10541 14.2925 9.29306C14.1049 9.4807 13.9994 9.73519 13.9994 10.0006C13.9994 10.2659 14.1049 10.5204 14.2925 10.7081L16.5863 13.0006H9C8.73478 13.0006 8.48043 13.1059 8.29289 13.2934C8.10536 13.481 8 13.7353 8 14.0006C8 14.2658 8.10536 14.5201 8.29289 14.7077C8.48043 14.8952 8.73478 15.0006 9 15.0006H16.5863L14.2925 17.2931C14.1049 17.4807 13.9994 17.7352 13.9994 18.0006C13.9994 18.2659 14.1049 18.5204 14.2925 18.7081C14.4801 18.8957 14.7346 19.0011 15 19.0011C15.2654 19.0011 15.5199 18.8957 15.7075 18.7081L19.7075 14.7081C19.8005 14.6152 19.8742 14.5049 19.9246 14.3835C19.9749 14.2621 20.0008 14.132 20.0008 14.0006C20.0008 13.8691 19.9749 13.739 19.9246 13.6176Z"
          fill="var(--text)"/>
</svg>
