<svg width="216" height="217" viewBox="0 0 216 217" fill="none" xmlns="http://www.w3.org/2000/svg" opacity=".2">
    <path d="M3.61 7.23C5.42702 7.23 6.9 5.75702 6.9 3.94C6.9 2.12298 5.42702 0.65 3.61 0.65C1.79298 0.65 0.32 2.12298 0.32 3.94C0.32 5.75702 1.79298 7.23 3.61 7.23Z" fill="white"/>
    <path d="M3.61 17.9389C4.94653 17.9389 6.03 16.8555 6.03 15.5189C6.03 14.1824 4.94653 13.0989 3.61 13.0989C2.27347 13.0989 1.19 14.1824 1.19 15.5189C1.19 16.8555 2.27347 17.9389 3.61 17.9389Z" fill="white"/>
    <path d="M3.61 30.1379C5.28895 30.1379 6.65 28.7768 6.65 27.0979C6.65 25.4189 5.28895 24.0579 3.61 24.0579C1.93105 24.0579 0.57 25.4189 0.57 27.0979C0.57 28.7768 1.93105 30.1379 3.61 30.1379Z" fill="white"/>
    <path d="M3.61 40.9568C4.86921 40.9568 5.89 39.9361 5.89 38.6768C5.89 37.4176 4.86921 36.3968 3.61 36.3968C2.35079 36.3968 1.33 37.4176 1.33 38.6768C1.33 39.9361 2.35079 40.9568 3.61 40.9568Z" fill="white"/>
    <path d="M3.61 53.8658C5.60375 53.8658 7.22 52.2495 7.22 50.2558C7.22 48.262 5.60375 46.6458 3.61 46.6458C1.61625 46.6458 0 48.262 0 50.2558C0 52.2495 1.61625 53.8658 3.61 53.8658Z" fill="white"/>
    <path d="M3.61 64.0047C4.80846 64.0047 5.78 63.0332 5.78 61.8347C5.78 60.6363 4.80846 59.6647 3.61 59.6647C2.41154 59.6647 1.44 60.6363 1.44 61.8347C1.44 63.0332 2.41154 64.0047 3.61 64.0047Z" fill="white"/>
    <path d="M3.61 76.7337C5.44359 76.7337 6.93 75.2473 6.93 73.4137C6.93 71.5801 5.44359 70.0937 3.61 70.0937C1.77641 70.0937 0.29 71.5801 0.29 73.4137C0.29 75.2473 1.77641 76.7337 3.61 76.7337Z" fill="white"/>
    <path d="M3.61 88.5726C5.58718 88.5726 7.19 86.9698 7.19 84.9926C7.19 83.0155 5.58718 81.4126 3.61 81.4126C1.63282 81.4126 0.03 83.0155 0.03 84.9926C0.03 86.9698 1.63282 88.5726 3.61 88.5726Z" fill="white"/>
    <path d="M3.61 99.7216C5.3497 99.7216 6.76 98.3113 6.76 96.5716C6.76 94.8319 5.3497 93.4216 3.61 93.4216C1.8703 93.4216 0.46 94.8319 0.46 96.5716C0.46 98.3113 1.8703 99.7216 3.61 99.7216Z" fill="white"/>
    <path d="M3.61 110.551C4.93548 110.551 6.01 109.476 6.01 108.151C6.01 106.825 4.93548 105.751 3.61 105.751C2.28452 105.751 1.21 106.825 1.21 108.151C1.21 109.476 2.28452 110.551 3.61 110.551Z" fill="white"/>
    <path d="M3.61 121.759C4.73114 121.759 5.64 120.851 5.64 119.729C5.64 118.608 4.73114 117.699 3.61 117.699C2.48886 117.699 1.58 118.608 1.58 119.729C1.58 120.851 2.48886 121.759 3.61 121.759Z" fill="white"/>
    <path d="M3.61 133.378C4.75323 133.378 5.68 132.452 5.68 131.308C5.68 130.165 4.75323 129.238 3.61 129.238C2.46677 129.238 1.54 130.165 1.54 131.308C1.54 132.452 2.46677 133.378 3.61 133.378Z" fill="white"/>
    <path d="M3.61 144.827C4.68143 144.827 5.55 143.959 5.55 142.887C5.55 141.816 4.68143 140.947 3.61 140.947C2.53857 140.947 1.67 141.816 1.67 142.887C1.67 143.959 2.53857 144.827 3.61 144.827Z" fill="white"/>
    <path d="M3.61 156.806C4.90235 156.806 5.95 155.759 5.95 154.466C5.95 153.174 4.90235 152.126 3.61 152.126C2.31765 152.126 1.27 153.174 1.27 154.466C1.27 155.759 2.31765 156.806 3.61 156.806Z" fill="white"/>
    <path d="M3.61 169.135C5.31656 169.135 6.7 167.752 6.7 166.045C6.7 164.339 5.31656 162.955 3.61 162.955C1.90344 162.955 0.52 164.339 0.52 166.045C0.52 167.752 1.90344 169.135 3.61 169.135Z" fill="white"/>
    <path d="M3.61 179.384C4.58202 179.384 5.37 178.596 5.37 177.624C5.37 176.652 4.58202 175.864 3.61 175.864C2.63798 175.864 1.85 176.652 1.85 177.624C1.85 178.596 2.63798 179.384 3.61 179.384Z" fill="white"/>
    <path d="M3.61 190.813C4.49918 190.813 5.22 190.092 5.22 189.203C5.22 188.314 4.49918 187.593 3.61 187.593C2.72082 187.593 2 188.314 2 189.203C2 190.092 2.72082 190.813 3.61 190.813Z" fill="white"/>
    <path d="M3.61 203.392C5.05146 203.392 6.22 202.224 6.22 200.782C6.22 199.341 5.05146 198.172 3.61 198.172C2.16854 198.172 1 199.341 1 200.782C1 202.224 2.16854 203.392 3.61 203.392Z" fill="white"/>
    <path d="M3.61 214.051C4.54336 214.051 5.3 213.294 5.3 212.361C5.3 211.428 4.54336 210.671 3.61 210.671C2.67664 210.671 1.92 211.428 1.92 212.361C1.92 213.294 2.67664 214.051 3.61 214.051Z" fill="white"/>
    <path d="M15.1889 6.29C16.4868 6.29 17.5389 5.23787 17.5389 3.94C17.5389 2.64213 16.4868 1.59 15.1889 1.59C13.8911 1.59 12.8389 2.64213 12.8389 3.94C12.8389 5.23787 13.8911 6.29 15.1889 6.29Z" fill="white"/>
    <path d="M15.1889 16.6389C15.8075 16.6389 16.3089 16.1375 16.3089 15.5189C16.3089 14.9004 15.8075 14.3989 15.1889 14.3989C14.5704 14.3989 14.0689 14.9004 14.0689 15.5189C14.0689 16.1375 14.5704 16.6389 15.1889 16.6389Z" fill="white"/>
    <path d="M15.1889 30.1979C16.901 30.1979 18.2889 28.81 18.2889 27.0979C18.2889 25.3858 16.901 23.9979 15.1889 23.9979C13.4769 23.9979 12.0889 25.3858 12.0889 27.0979C12.0889 28.81 13.4769 30.1979 15.1889 30.1979Z" fill="white"/>
    <path d="M15.1889 41.2868C16.6304 41.2868 17.7989 40.1183 17.7989 38.6768C17.7989 37.2354 16.6304 36.0668 15.1889 36.0668C13.7475 36.0668 12.5789 37.2354 12.5789 38.6768C12.5789 40.1183 13.7475 41.2868 15.1889 41.2868Z" fill="white"/>
    <path d="M15.1889 52.6358C16.5034 52.6358 17.5689 51.5702 17.5689 50.2558C17.5689 48.9414 16.5034 47.8758 15.1889 47.8758C13.8745 47.8758 12.8089 48.9414 12.8089 50.2558C12.8089 51.5702 13.8745 52.6358 15.1889 52.6358Z" fill="white"/>
    <path d="M15.1889 62.9247C15.7909 62.9247 16.2789 62.4367 16.2789 61.8347C16.2789 61.2327 15.7909 60.7447 15.1889 60.7447C14.587 60.7447 14.0989 61.2327 14.0989 61.8347C14.0989 62.4367 14.587 62.9247 15.1889 62.9247Z" fill="white"/>
    <path d="M15.1889 76.2537C16.7574 76.2537 18.0289 74.9822 18.0289 73.4137C18.0289 71.8452 16.7574 70.5737 15.1889 70.5737C13.6205 70.5737 12.3489 71.8452 12.3489 73.4137C12.3489 74.9822 13.6205 76.2537 15.1889 76.2537Z" fill="white"/>
    <path d="M15.1889 87.9226C16.8071 87.9226 18.1189 86.6108 18.1189 84.9926C18.1189 83.3744 16.8071 82.0626 15.1889 82.0626C13.5708 82.0626 12.2589 83.3744 12.2589 84.9926C12.2589 86.6108 13.5708 87.9226 15.1889 87.9226Z" fill="white"/>
    <path d="M15.1889 98.8816C16.4647 98.8816 17.4989 97.8474 17.4989 96.5716C17.4989 95.2958 16.4647 94.2616 15.1889 94.2616C13.9132 94.2616 12.8789 95.2958 12.8789 96.5716C12.8789 97.8474 13.9132 98.8816 15.1889 98.8816Z" fill="white"/>
    <path d="M15.1889 110.311C16.3819 110.311 17.3489 109.343 17.3489 108.151C17.3489 106.958 16.3819 105.991 15.1889 105.991C13.996 105.991 13.0289 106.958 13.0289 108.151C13.0289 109.343 13.996 110.311 15.1889 110.311Z" fill="white"/>
    <path d="M15.1889 121.619C16.2328 121.619 17.0789 120.773 17.0789 119.729C17.0789 118.686 16.2328 117.839 15.1889 117.839C14.1451 117.839 13.2989 118.686 13.2989 119.729C13.2989 120.773 14.1451 121.619 15.1889 121.619Z" fill="white"/>
    <path d="M15.1889 134.278C16.8292 134.278 18.1589 132.949 18.1589 131.308C18.1589 129.668 16.8292 128.338 15.1889 128.338C13.5487 128.338 12.2189 129.668 12.2189 131.308C12.2189 132.949 13.5487 134.278 15.1889 134.278Z" fill="white"/>
    <path d="M15.1889 146.347C17.0999 146.347 18.6489 144.798 18.6489 142.887C18.6489 140.976 17.0999 139.427 15.1889 139.427C13.278 139.427 11.7289 140.976 11.7289 142.887C11.7289 144.798 13.278 146.347 15.1889 146.347Z" fill="white"/>
    <path d="M15.1889 156.166C16.1278 156.166 16.8889 155.405 16.8889 154.466C16.8889 153.527 16.1278 152.766 15.1889 152.766C14.2501 152.766 13.4889 153.527 13.4889 154.466C13.4889 155.405 14.2501 156.166 15.1889 156.166Z" fill="white"/>
    <path d="M15.1889 167.245C15.8517 167.245 16.3889 166.708 16.3889 166.045C16.3889 165.383 15.8517 164.845 15.1889 164.845C14.5262 164.845 13.9889 165.383 13.9889 166.045C13.9889 166.708 14.5262 167.245 15.1889 167.245Z" fill="white"/>
    <path d="M15.1889 180.854C16.9728 180.854 18.4189 179.408 18.4189 177.624C18.4189 175.84 16.9728 174.394 15.1889 174.394C13.4051 174.394 11.9589 175.84 11.9589 177.624C11.9589 179.408 13.4051 180.854 15.1889 180.854Z" fill="white"/>
    <path d="M15.1889 192.343C16.9231 192.343 18.3289 190.937 18.3289 189.203C18.3289 187.469 16.9231 186.063 15.1889 186.063C13.4548 186.063 12.0489 187.469 12.0489 189.203C12.0489 190.937 13.4548 192.343 15.1889 192.343Z" fill="white"/>
    <path d="M15.1889 203.242C16.5476 203.242 17.6489 202.141 17.6489 200.782C17.6489 199.423 16.5476 198.322 15.1889 198.322C13.8303 198.322 12.7289 199.423 12.7289 200.782C12.7289 202.141 13.8303 203.242 15.1889 203.242Z" fill="white"/>
    <path d="M15.1889 216.011C17.2048 216.011 18.8389 214.377 18.8389 212.361C18.8389 210.345 17.2048 208.711 15.1889 208.711C13.1731 208.711 11.5389 210.345 11.5389 212.361C11.5389 214.377 13.1731 216.011 15.1889 216.011Z" fill="white"/>
    <path d="M26.7679 5.25C27.4914 5.25 28.0779 4.66349 28.0779 3.94C28.0779 3.21651 27.4914 2.63 26.7679 2.63C26.0444 2.63 25.4579 3.21651 25.4579 3.94C25.4579 4.66349 26.0444 5.25 26.7679 5.25Z" fill="white"/>
    <path d="M26.7679 16.9689C27.5687 16.9689 28.2179 16.3198 28.2179 15.5189C28.2179 14.7181 27.5687 14.0689 26.7679 14.0689C25.9671 14.0689 25.3179 14.7181 25.3179 15.5189C25.3179 16.3198 25.9671 16.9689 26.7679 16.9689Z" fill="white"/>
    <path d="M26.7679 29.4979C28.0934 29.4979 29.1679 28.4234 29.1679 27.0979C29.1679 25.7724 28.0934 24.6979 26.7679 24.6979C25.4424 24.6979 24.3679 25.7724 24.3679 27.0979C24.3679 28.4234 25.4424 29.4979 26.7679 29.4979Z" fill="white"/>
    <path d="M26.7679 40.7068C27.889 40.7068 28.7979 39.798 28.7979 38.6768C28.7979 37.5557 27.889 36.6468 26.7679 36.6468C25.6468 36.6468 24.7379 37.5557 24.7379 38.6768C24.7379 39.798 25.6468 40.7068 26.7679 40.7068Z" fill="white"/>
    <path d="M26.7679 53.3358C28.4689 53.3358 29.8479 51.9568 29.8479 50.2558C29.8479 48.5548 28.4689 47.1758 26.7679 47.1758C25.0669 47.1758 23.6879 48.5548 23.6879 50.2558C23.6879 51.9568 25.0669 53.3358 26.7679 53.3358Z" fill="white"/>
    <path d="M26.7679 64.3447C28.1541 64.3447 29.2779 63.221 29.2779 61.8347C29.2779 60.4485 28.1541 59.3247 26.7679 59.3247C25.3817 59.3247 24.2579 60.4485 24.2579 61.8347C24.2579 63.221 25.3817 64.3447 26.7679 64.3447Z" fill="white"/>
    <path d="M26.7679 75.5337C27.9387 75.5337 28.8879 74.5845 28.8879 73.4137C28.8879 72.2428 27.9387 71.2937 26.7679 71.2937C25.5971 71.2937 24.6479 72.2428 24.6479 73.4137C24.6479 74.5845 25.5971 75.5337 26.7679 75.5337Z" fill="white"/>
    <path d="M26.7679 87.8626C28.353 87.8626 29.6379 86.5777 29.6379 84.9926C29.6379 83.4076 28.353 82.1226 26.7679 82.1226C25.1828 82.1226 23.8979 83.4076 23.8979 84.9926C23.8979 86.5777 25.1828 87.8626 26.7679 87.8626Z" fill="white"/>
    <path d="M26.7679 98.5116C27.8393 98.5116 28.7079 97.643 28.7079 96.5716C28.7079 95.5001 27.8393 94.6316 26.7679 94.6316C25.6965 94.6316 24.8279 95.5001 24.8279 96.5716C24.8279 97.643 25.6965 98.5116 26.7679 98.5116Z" fill="white"/>
    <path d="M26.7679 110.361C27.9884 110.361 28.9779 109.371 28.9779 108.151C28.9779 106.93 27.9884 105.941 26.7679 105.941C25.5473 105.941 24.5579 106.93 24.5579 108.151C24.5579 109.371 25.5473 110.361 26.7679 110.361Z" fill="white"/>
    <path d="M26.7679 123.709C28.966 123.709 30.7479 121.928 30.7479 119.729C30.7479 117.531 28.966 115.749 26.7679 115.749C24.5698 115.749 22.7879 117.531 22.7879 119.729C22.7879 121.928 24.5698 123.709 26.7679 123.709Z" fill="white"/>
    <path d="M26.7679 133.268C27.8504 133.268 28.7279 132.391 28.7279 131.308C28.7279 130.226 27.8504 129.348 26.7679 129.348C25.6854 129.348 24.8079 130.226 24.8079 131.308C24.8079 132.391 25.6854 133.268 26.7679 133.268Z" fill="white"/>
    <path d="M26.7679 146.607C28.8224 146.607 30.4879 144.942 30.4879 142.887C30.4879 140.833 28.8224 139.167 26.7679 139.167C24.7134 139.167 23.0479 140.833 23.0479 142.887C23.0479 144.942 24.7134 146.607 26.7679 146.607Z" fill="white"/>
    <path d="M26.7679 157.866C28.6457 157.866 30.1679 156.344 30.1679 154.466C30.1679 152.589 28.6457 151.066 26.7679 151.066C24.8901 151.066 23.3679 152.589 23.3679 154.466C23.3679 156.344 24.8901 157.866 26.7679 157.866Z" fill="white"/>
    <path d="M26.7679 169.455C28.6512 169.455 30.1779 167.929 30.1779 166.045C30.1779 164.162 28.6512 162.635 26.7679 162.635C24.8846 162.635 23.3579 164.162 23.3579 166.045C23.3579 167.929 24.8846 169.455 26.7679 169.455Z" fill="white"/>
    <path d="M26.7679 179.724C27.9277 179.724 28.8679 178.784 28.8679 177.624C28.8679 176.464 27.9277 175.524 26.7679 175.524C25.6081 175.524 24.6679 176.464 24.6679 177.624C24.6679 178.784 25.6081 179.724 26.7679 179.724Z" fill="white"/>
    <path d="M26.7679 190.303C27.3754 190.303 27.8679 189.811 27.8679 189.203C27.8679 188.596 27.3754 188.103 26.7679 188.103C26.1604 188.103 25.6679 188.596 25.6679 189.203C25.6679 189.811 26.1604 190.303 26.7679 190.303Z" fill="white"/>
    <path d="M26.7679 203.252C28.132 203.252 29.2379 202.146 29.2379 200.782C29.2379 199.418 28.132 198.312 26.7679 198.312C25.4038 198.312 24.2979 199.418 24.2979 200.782C24.2979 202.146 25.4038 203.252 26.7679 203.252Z" fill="white"/>
    <path d="M26.7679 213.411C27.3478 213.411 27.8179 212.941 27.8179 212.361C27.8179 211.781 27.3478 211.311 26.7679 211.311C26.188 211.311 25.7179 211.781 25.7179 212.361C25.7179 212.941 26.188 213.411 26.7679 213.411Z" fill="white"/>
    <path d="M38.3468 5.55C39.236 5.55 39.9568 4.82918 39.9568 3.94C39.9568 3.05082 39.236 2.33 38.3468 2.33C37.4577 2.33 36.7368 3.05082 36.7368 3.94C36.7368 4.82918 37.4577 5.55 38.3468 5.55Z" fill="white"/>
    <path d="M38.3468 17.0189C39.1753 17.0189 39.8468 16.3474 39.8468 15.5189C39.8468 14.6905 39.1753 14.0189 38.3468 14.0189C37.5184 14.0189 36.8468 14.6905 36.8468 15.5189C36.8468 16.3474 37.5184 17.0189 38.3468 17.0189Z" fill="white"/>
    <path d="M38.3468 30.1879C40.0534 30.1879 41.4368 28.8045 41.4368 27.0979C41.4368 25.3913 40.0534 24.0079 38.3468 24.0079C36.6403 24.0079 35.2568 25.3913 35.2568 27.0979C35.2568 28.8045 36.6403 30.1879 38.3468 30.1879Z" fill="white"/>
    <path d="M38.3468 40.4768C39.341 40.4768 40.1468 39.671 40.1468 38.6768C40.1468 37.6827 39.341 36.8768 38.3468 36.8768C37.3527 36.8768 36.5468 37.6827 36.5468 38.6768C36.5468 39.671 37.3527 40.4768 38.3468 40.4768Z" fill="white"/>
    <path d="M38.3468 53.4558C40.1142 53.4558 41.5468 52.0231 41.5468 50.2558C41.5468 48.4885 40.1142 47.0558 38.3468 47.0558C36.5795 47.0558 35.1468 48.4885 35.1468 50.2558C35.1468 52.0231 36.5795 53.4558 38.3468 53.4558Z" fill="white"/>
    <path d="M38.3468 63.1247C39.0593 63.1247 39.6368 62.5472 39.6368 61.8347C39.6368 61.1223 39.0593 60.5447 38.3468 60.5447C37.6344 60.5447 37.0568 61.1223 37.0568 61.8347C37.0568 62.5472 37.6344 63.1247 38.3468 63.1247Z" fill="white"/>
    <path d="M38.3468 77.3337C40.5118 77.3337 42.2668 75.5786 42.2668 73.4137C42.2668 71.2487 40.5118 69.4937 38.3468 69.4937C36.1819 69.4937 34.4268 71.2487 34.4268 73.4137C34.4268 75.5786 36.1819 77.3337 38.3468 77.3337Z" fill="white"/>
    <path d="M38.3468 87.6326C39.8049 87.6326 40.9868 86.4507 40.9868 84.9926C40.9868 83.5346 39.8049 82.3526 38.3468 82.3526C36.8888 82.3526 35.7068 83.5346 35.7068 84.9926C35.7068 86.4507 36.8888 87.6326 38.3468 87.6326Z" fill="white"/>
    <path d="M38.3468 100.412C40.4676 100.412 42.1868 98.6924 42.1868 96.5716C42.1868 94.4508 40.4676 92.7316 38.3468 92.7316C36.2261 92.7316 34.5068 94.4508 34.5068 96.5716C34.5068 98.6924 36.2261 100.412 38.3468 100.412Z" fill="white"/>
    <path d="M38.3468 109.281C38.9709 109.281 39.4768 108.775 39.4768 108.151C39.4768 107.526 38.9709 107.021 38.3468 107.021C37.7228 107.021 37.2168 107.526 37.2168 108.151C37.2168 108.775 37.7228 109.281 38.3468 109.281Z" fill="white"/>
    <path d="M38.3468 123.139C40.2301 123.139 41.7568 121.613 41.7568 119.729C41.7568 117.846 40.2301 116.319 38.3468 116.319C36.4636 116.319 34.9368 117.846 34.9368 119.729C34.9368 121.613 36.4636 123.139 38.3468 123.139Z" fill="white"/>
    <path d="M38.3468 132.958C39.2581 132.958 39.9968 132.22 39.9968 131.308C39.9968 130.397 39.2581 129.658 38.3468 129.658C37.4356 129.658 36.6968 130.397 36.6968 131.308C36.6968 132.22 37.4356 132.958 38.3468 132.958Z" fill="white"/>
    <path d="M38.3468 146.717C40.4621 146.717 42.1768 145.003 42.1768 142.887C42.1768 140.772 40.4621 139.057 38.3468 139.057C36.2316 139.057 34.5168 140.772 34.5168 142.887C34.5168 145.003 36.2316 146.717 38.3468 146.717Z" fill="white"/>
    <path d="M38.3468 157.266C39.8932 157.266 41.1468 156.013 41.1468 154.466C41.1468 152.92 39.8932 151.666 38.3468 151.666C36.8004 151.666 35.5468 152.92 35.5468 154.466C35.5468 156.013 36.8004 157.266 38.3468 157.266Z" fill="white"/>
    <path d="M38.3468 167.615C39.2139 167.615 39.9168 166.912 39.9168 166.045C39.9168 165.178 39.2139 164.475 38.3468 164.475C37.4798 164.475 36.7768 165.178 36.7768 166.045C36.7768 166.912 37.4798 167.615 38.3468 167.615Z" fill="white"/>
    <path d="M38.3468 179.764C39.5287 179.764 40.4868 178.806 40.4868 177.624C40.4868 176.442 39.5287 175.484 38.3468 175.484C37.165 175.484 36.2068 176.442 36.2068 177.624C36.2068 178.806 37.165 179.764 38.3468 179.764Z" fill="white"/>
    <path d="M38.3468 192.833C40.3516 192.833 41.9768 191.208 41.9768 189.203C41.9768 187.198 40.3516 185.573 38.3468 185.573C36.3421 185.573 34.7168 187.198 34.7168 189.203C34.7168 191.208 36.3421 192.833 38.3468 192.833Z" fill="white"/>
    <path d="M38.3468 202.342C39.2084 202.342 39.9068 201.644 39.9068 200.782C39.9068 199.921 39.2084 199.222 38.3468 199.222C37.4853 199.222 36.7868 199.921 36.7868 200.782C36.7868 201.644 37.4853 202.342 38.3468 202.342Z" fill="white"/>
    <path d="M38.3468 214.981C39.7938 214.981 40.9668 213.808 40.9668 212.361C40.9668 210.914 39.7938 209.741 38.3468 209.741C36.8999 209.741 35.7268 210.914 35.7268 212.361C35.7268 213.808 36.8999 214.981 38.3468 214.981Z" fill="white"/>
    <path d="M49.9258 6.63C51.4114 6.63 52.6158 5.42565 52.6158 3.94C52.6158 2.45435 51.4114 1.25 49.9258 1.25C48.4401 1.25 47.2358 2.45435 47.2358 3.94C47.2358 5.42565 48.4401 6.63 49.9258 6.63Z" fill="white"/>
    <path d="M49.9258 18.1989C51.4059 18.1989 52.6058 16.9991 52.6058 15.5189C52.6058 14.0388 51.4059 12.8389 49.9258 12.8389C48.4457 12.8389 47.2458 14.0388 47.2458 15.5189C47.2458 16.9991 48.4457 18.1989 49.9258 18.1989Z" fill="white"/>
    <path d="M49.9258 29.9679C51.5108 29.9679 52.7958 28.683 52.7958 27.0979C52.7958 25.5128 51.5108 24.2279 49.9258 24.2279C48.3407 24.2279 47.0558 25.5128 47.0558 27.0979C47.0558 28.683 48.3407 29.9679 49.9258 29.9679Z" fill="white"/>
    <path d="M49.9258 40.4368C50.8978 40.4368 51.6858 39.6489 51.6858 38.6768C51.6858 37.7048 50.8978 36.9168 49.9258 36.9168C48.9538 36.9168 48.1658 37.7048 48.1658 38.6768C48.1658 39.6489 48.9538 40.4368 49.9258 40.4368Z" fill="white"/>
    <path d="M49.9258 53.8258C51.8974 53.8258 53.4958 52.2274 53.4958 50.2558C53.4958 48.2841 51.8974 46.6858 49.9258 46.6858C47.9541 46.6858 46.3558 48.2841 46.3558 50.2558C46.3558 52.2274 47.9541 53.8258 49.9258 53.8258Z" fill="white"/>
    <path d="M49.9258 63.5347C50.8647 63.5347 51.6258 62.7736 51.6258 61.8347C51.6258 60.8959 50.8647 60.1347 49.9258 60.1347C48.9869 60.1347 48.2258 60.8959 48.2258 61.8347C48.2258 62.7736 48.9869 63.5347 49.9258 63.5347Z" fill="white"/>
    <path d="M49.9258 75.4937C51.0745 75.4937 52.0058 74.5624 52.0058 73.4137C52.0058 72.2649 51.0745 71.3337 49.9258 71.3337C48.777 71.3337 47.8458 72.2649 47.8458 73.4137C47.8458 74.5624 48.777 75.4937 49.9258 75.4937Z" fill="white"/>
    <path d="M49.9258 88.5126C51.8698 88.5126 53.4458 86.9367 53.4458 84.9926C53.4458 83.0486 51.8698 81.4726 49.9258 81.4726C47.9817 81.4726 46.4058 83.0486 46.4058 84.9926C46.4058 86.9367 47.9817 88.5126 49.9258 88.5126Z" fill="white"/>
    <path d="M49.9258 97.9216C50.6714 97.9216 51.2758 97.3172 51.2758 96.5716C51.2758 95.826 50.6714 95.2216 49.9258 95.2216C49.1802 95.2216 48.5758 95.826 48.5758 96.5716C48.5758 97.3172 49.1802 97.9216 49.9258 97.9216Z" fill="white"/>
    <path d="M49.9258 109.871C50.8757 109.871 51.6458 109.1 51.6458 108.151C51.6458 107.201 50.8757 106.431 49.9258 106.431C48.9759 106.431 48.2058 107.201 48.2058 108.151C48.2058 109.1 48.9759 109.871 49.9258 109.871Z" fill="white"/>
    <path d="M49.9258 120.969C50.6106 120.969 51.1658 120.414 51.1658 119.729C51.1658 119.045 50.6106 118.489 49.9258 118.489C49.241 118.489 48.6858 119.045 48.6858 119.729C48.6858 120.414 49.241 120.969 49.9258 120.969Z" fill="white"/>
    <path d="M49.9258 132.868C50.7874 132.868 51.4858 132.17 51.4858 131.308C51.4858 130.447 50.7874 129.748 49.9258 129.748C49.0642 129.748 48.3658 130.447 48.3658 131.308C48.3658 132.17 49.0642 132.868 49.9258 132.868Z" fill="white"/>
    <path d="M49.9258 145.127C51.1629 145.127 52.1658 144.124 52.1658 142.887C52.1658 141.65 51.1629 140.647 49.9258 140.647C48.6887 140.647 47.6858 141.65 47.6858 142.887C47.6858 144.124 48.6887 145.127 49.9258 145.127Z" fill="white"/>
    <path d="M49.9258 158.326C52.0576 158.326 53.7858 156.598 53.7858 154.466C53.7858 152.335 52.0576 150.606 49.9258 150.606C47.794 150.606 46.0658 152.335 46.0658 154.466C46.0658 156.598 47.794 158.326 49.9258 158.326Z" fill="white"/>
    <path d="M49.9258 168.885C51.4943 168.885 52.7658 167.614 52.7658 166.045C52.7658 164.477 51.4943 163.205 49.9258 163.205C48.3573 163.205 47.0858 164.477 47.0858 166.045C47.0858 167.614 48.3573 168.885 49.9258 168.885Z" fill="white"/>
    <path d="M49.9258 180.494C51.5108 180.494 52.7958 179.209 52.7958 177.624C52.7958 176.039 51.5108 174.754 49.9258 174.754C48.3407 174.754 47.0558 176.039 47.0558 177.624C47.0558 179.209 48.3407 180.494 49.9258 180.494Z" fill="white"/>
    <path d="M49.9258 191.373C51.1242 191.373 52.0958 190.402 52.0958 189.203C52.0958 188.005 51.1242 187.033 49.9258 187.033C48.7273 187.033 47.7558 188.005 47.7558 189.203C47.7558 190.402 48.7273 191.373 49.9258 191.373Z" fill="white"/>
    <path d="M49.9258 203.042C51.174 203.042 52.1858 202.03 52.1858 200.782C52.1858 199.534 51.174 198.522 49.9258 198.522C48.6776 198.522 47.6658 199.534 47.6658 200.782C47.6658 202.03 48.6776 203.042 49.9258 203.042Z" fill="white"/>
    <path d="M49.9258 216.091C51.9858 216.091 53.6558 214.421 53.6558 212.361C53.6558 210.301 51.9858 208.631 49.9258 208.631C47.8658 208.631 46.1958 210.301 46.1958 212.361C46.1958 214.421 47.8658 216.091 49.9258 216.091Z" fill="white"/>
    <path d="M61.5047 6.02C62.6535 6.02 63.5847 5.08875 63.5847 3.94C63.5847 2.79125 62.6535 1.86 61.5047 1.86C60.356 1.86 59.4247 2.79125 59.4247 3.94C59.4247 5.08875 60.356 6.02 61.5047 6.02Z" fill="white"/>
    <path d="M61.5047 17.8389C62.786 17.8389 63.8247 16.8002 63.8247 15.5189C63.8247 14.2376 62.786 13.1989 61.5047 13.1989C60.2234 13.1989 59.1847 14.2376 59.1847 15.5189C59.1847 16.8002 60.2234 17.8389 61.5047 17.8389Z" fill="white"/>
    <path d="M61.5047 29.0679C62.5927 29.0679 63.4747 28.1859 63.4747 27.0979C63.4747 26.0099 62.5927 25.1279 61.5047 25.1279C60.4167 25.1279 59.5347 26.0099 59.5347 27.0979C59.5347 28.1859 60.4167 29.0679 61.5047 29.0679Z" fill="white"/>
    <path d="M61.5047 40.2668C62.3829 40.2668 63.0947 39.555 63.0947 38.6768C63.0947 37.7987 62.3829 37.0868 61.5047 37.0868C60.6266 37.0868 59.9147 37.7987 59.9147 38.6768C59.9147 39.555 60.6266 40.2668 61.5047 40.2668Z" fill="white"/>
    <path d="M61.5047 51.5958C62.2448 51.5958 62.8447 50.9959 62.8447 50.2558C62.8447 49.5157 62.2448 48.9158 61.5047 48.9158C60.7647 48.9158 60.1647 49.5157 60.1647 50.2558C60.1647 50.9959 60.7647 51.5958 61.5047 51.5958Z" fill="white"/>
    <path d="M61.5047 64.6347C63.0511 64.6347 64.3047 63.3811 64.3047 61.8347C64.3047 60.2883 63.0511 59.0347 61.5047 59.0347C59.9583 59.0347 58.7047 60.2883 58.7047 61.8347C58.7047 63.3811 59.9583 64.6347 61.5047 64.6347Z" fill="white"/>
    <path d="M61.5047 76.3537C63.1285 76.3537 64.4447 75.0374 64.4447 73.4137C64.4447 71.79 63.1285 70.4737 61.5047 70.4737C59.881 70.4737 58.5647 71.79 58.5647 73.4137C58.5647 75.0374 59.881 76.3537 61.5047 76.3537Z" fill="white"/>
    <path d="M61.5047 86.5626C62.3718 86.5626 63.0747 85.8597 63.0747 84.9926C63.0747 84.1255 62.3718 83.4226 61.5047 83.4226C60.6377 83.4226 59.9347 84.1255 59.9347 84.9926C59.9347 85.8597 60.6377 86.5626 61.5047 86.5626Z" fill="white"/>
    <path d="M61.5047 97.8116C62.1896 97.8116 62.7447 97.2564 62.7447 96.5716C62.7447 95.8867 62.1896 95.3316 61.5047 95.3316C60.8199 95.3316 60.2647 95.8867 60.2647 96.5716C60.2647 97.2564 60.8199 97.8116 61.5047 97.8116Z" fill="white"/>
    <path d="M61.5047 112.151C63.7139 112.151 65.5047 110.36 65.5047 108.151C65.5047 105.941 63.7139 104.151 61.5047 104.151C59.2956 104.151 57.5047 105.941 57.5047 108.151C57.5047 110.36 59.2956 112.151 61.5047 112.151Z" fill="white"/>
    <path d="M61.5047 123.629C63.6586 123.629 65.4047 121.883 65.4047 119.729C65.4047 117.576 63.6586 115.829 61.5047 115.829C59.3508 115.829 57.6047 117.576 57.6047 119.729C57.6047 121.883 59.3508 123.629 61.5047 123.629Z" fill="white"/>
    <path d="M61.5047 134.978C63.5316 134.978 65.1747 133.335 65.1747 131.308C65.1747 129.282 63.5316 127.638 61.5047 127.638C59.4779 127.638 57.8347 129.282 57.8347 131.308C57.8347 133.335 59.4779 134.978 61.5047 134.978Z" fill="white"/>
    <path d="M61.5047 146.377C63.4322 146.377 64.9947 144.815 64.9947 142.887C64.9947 140.96 63.4322 139.397 61.5047 139.397C59.5773 139.397 58.0147 140.96 58.0147 142.887C58.0147 144.815 59.5773 146.377 61.5047 146.377Z" fill="white"/>
    <path d="M61.5047 156.926C62.8634 156.926 63.9647 155.825 63.9647 154.466C63.9647 153.108 62.8634 152.006 61.5047 152.006C60.1461 152.006 59.0447 153.108 59.0447 154.466C59.0447 155.825 60.1461 156.926 61.5047 156.926Z" fill="white"/>
    <path d="M61.5047 168.165C62.6756 168.165 63.6247 167.216 63.6247 166.045C63.6247 164.874 62.6756 163.925 61.5047 163.925C60.3339 163.925 59.3847 164.874 59.3847 166.045C59.3847 167.216 60.3339 168.165 61.5047 168.165Z" fill="white"/>
    <path d="M61.5047 181.484C63.6366 181.484 65.3647 179.756 65.3647 177.624C65.3647 175.492 63.6366 173.764 61.5047 173.764C59.3729 173.764 57.6447 175.492 57.6447 177.624C57.6447 179.756 59.3729 181.484 61.5047 181.484Z" fill="white"/>
    <path d="M61.5047 191.093C62.5486 191.093 63.3947 190.247 63.3947 189.203C63.3947 188.159 62.5486 187.313 61.5047 187.313C60.4609 187.313 59.6147 188.159 59.6147 189.203C59.6147 190.247 60.4609 191.093 61.5047 191.093Z" fill="white"/>
    <path d="M61.5047 204.202C63.3936 204.202 64.9247 202.671 64.9247 200.782C64.9247 198.893 63.3936 197.362 61.5047 197.362C59.6159 197.362 58.0847 198.893 58.0847 200.782C58.0847 202.671 59.6159 204.202 61.5047 204.202Z" fill="white"/>
    <path d="M61.5047 214.911C62.9131 214.911 64.0547 213.769 64.0547 212.361C64.0547 210.953 62.9131 209.811 61.5047 209.811C60.0964 209.811 58.9547 210.953 58.9547 212.361C58.9547 213.769 60.0964 214.911 61.5047 214.911Z" fill="white"/>
    <path d="M73.0837 6.26C74.365 6.26 75.4037 5.2213 75.4037 3.94C75.4037 2.6587 74.365 1.62 73.0837 1.62C71.8024 1.62 70.7637 2.6587 70.7637 3.94C70.7637 5.2213 71.8024 6.26 73.0837 6.26Z" fill="white"/>
    <path d="M73.0837 17.3689C74.1054 17.3689 74.9337 16.5407 74.9337 15.5189C74.9337 14.4972 74.1054 13.6689 73.0837 13.6689C72.062 13.6689 71.2337 14.4972 71.2337 15.5189C71.2337 16.5407 72.062 17.3689 73.0837 17.3689Z" fill="white"/>
    <path d="M73.0837 28.5979C73.9121 28.5979 74.5837 27.9263 74.5837 27.0979C74.5837 26.2695 73.9121 25.5979 73.0837 25.5979C72.2553 25.5979 71.5837 26.2695 71.5837 27.0979C71.5837 27.9263 72.2553 28.5979 73.0837 28.5979Z" fill="white"/>
    <path d="M73.0837 41.0468C74.3926 41.0468 75.4537 39.9858 75.4537 38.6768C75.4537 37.3679 74.3926 36.3068 73.0837 36.3068C71.7748 36.3068 70.7137 37.3679 70.7137 38.6768C70.7137 39.9858 71.7748 41.0468 73.0837 41.0468Z" fill="white"/>
    <path d="M73.0837 52.9558C74.5749 52.9558 75.7837 51.747 75.7837 50.2558C75.7837 48.7646 74.5749 47.5558 73.0837 47.5558C71.5925 47.5558 70.3837 48.7646 70.3837 50.2558C70.3837 51.747 71.5925 52.9558 73.0837 52.9558Z" fill="white"/>
    <path d="M73.0837 63.0047C73.7299 63.0047 74.2537 62.4809 74.2537 61.8347C74.2537 61.1886 73.7299 60.6647 73.0837 60.6647C72.4375 60.6647 71.9137 61.1886 71.9137 61.8347C71.9137 62.4809 72.4375 63.0047 73.0837 63.0047Z" fill="white"/>
    <path d="M73.0837 76.8037C74.9559 76.8037 76.4737 75.2859 76.4737 73.4137C76.4737 71.5414 74.9559 70.0237 73.0837 70.0237C71.2114 70.0237 69.6937 71.5414 69.6937 73.4137C69.6937 75.2859 71.2114 76.8037 73.0837 76.8037Z" fill="white"/>
    <path d="M73.0837 88.0126C74.7516 88.0126 76.1037 86.6605 76.1037 84.9926C76.1037 83.3247 74.7516 81.9726 73.0837 81.9726C71.4158 81.9726 70.0637 83.3247 70.0637 84.9926C70.0637 86.6605 71.4158 88.0126 73.0837 88.0126Z" fill="white"/>
    <path d="M73.0837 99.5016C74.7019 99.5016 76.0137 98.1898 76.0137 96.5716C76.0137 94.9534 74.7019 93.6416 73.0837 93.6416C71.4655 93.6416 70.1537 94.9534 70.1537 96.5716C70.1537 98.1898 71.4655 99.5016 73.0837 99.5016Z" fill="white"/>
    <path d="M73.0837 109.191C73.6581 109.191 74.1237 108.725 74.1237 108.151C74.1237 107.576 73.6581 107.111 73.0837 107.111C72.5093 107.111 72.0437 107.576 72.0437 108.151C72.0437 108.725 72.5093 109.191 73.0837 109.191Z" fill="white"/>
    <path d="M73.0837 121.139C73.8624 121.139 74.4937 120.508 74.4937 119.729C74.4937 118.951 73.8624 118.319 73.0837 118.319C72.305 118.319 71.6737 118.951 71.6737 119.729C71.6737 120.508 72.305 121.139 73.0837 121.139Z" fill="white"/>
    <path d="M73.0837 133.308C74.1883 133.308 75.0837 132.413 75.0837 131.308C75.0837 130.204 74.1883 129.308 73.0837 129.308C71.9791 129.308 71.0837 130.204 71.0837 131.308C71.0837 132.413 71.9791 133.308 73.0837 133.308Z" fill="white"/>
    <path d="M73.0837 144.717C74.0944 144.717 74.9137 143.898 74.9137 142.887C74.9137 141.877 74.0944 141.057 73.0837 141.057C72.073 141.057 71.2537 141.877 71.2537 142.887C71.2537 143.898 72.073 144.717 73.0837 144.717Z" fill="white"/>
    <path d="M73.0837 158.036C75.0553 158.036 76.6537 156.438 76.6537 154.466C76.6537 152.495 75.0553 150.896 73.0837 150.896C71.112 150.896 69.5137 152.495 69.5137 154.466C69.5137 156.438 71.112 158.036 73.0837 158.036Z" fill="white"/>
    <path d="M73.0837 168.055C74.1938 168.055 75.0937 167.155 75.0937 166.045C75.0937 164.935 74.1938 164.035 73.0837 164.035C71.9736 164.035 71.0737 164.935 71.0737 166.045C71.0737 167.155 71.9736 168.055 73.0837 168.055Z" fill="white"/>
    <path d="M73.0837 179.164C73.9342 179.164 74.6237 178.475 74.6237 177.624C74.6237 176.774 73.9342 176.084 73.0837 176.084C72.2332 176.084 71.5437 176.774 71.5437 177.624C71.5437 178.475 72.2332 179.164 73.0837 179.164Z" fill="white"/>
    <path d="M73.0837 192.783C75.0609 192.783 76.6637 191.18 76.6637 189.203C76.6637 187.226 75.0609 185.623 73.0837 185.623C71.1065 185.623 69.5037 187.226 69.5037 189.203C69.5037 191.18 71.1065 192.783 73.0837 192.783Z" fill="white"/>
    <path d="M73.0837 203.742C74.7184 203.742 76.0437 202.417 76.0437 200.782C76.0437 199.147 74.7184 197.822 73.0837 197.822C71.4489 197.822 70.1237 199.147 70.1237 200.782C70.1237 202.417 71.4489 203.742 73.0837 203.742Z" fill="white"/>
    <path d="M73.0837 215.811C74.9891 215.811 76.5337 214.266 76.5337 212.361C76.5337 210.456 74.9891 208.911 73.0837 208.911C71.1783 208.911 69.6337 210.456 69.6337 212.361C69.6337 214.266 71.1783 215.811 73.0837 215.811Z" fill="white"/>
    <path d="M84.6626 5.09C85.2978 5.09 85.8126 4.57513 85.8126 3.94C85.8126 3.30487 85.2978 2.79 84.6626 2.79C84.0275 2.79 83.5126 3.30487 83.5126 3.94C83.5126 4.57513 84.0275 5.09 84.6626 5.09Z" fill="white"/>
    <path d="M84.6626 16.6189C85.2701 16.6189 85.7626 16.1265 85.7626 15.5189C85.7626 14.9114 85.2701 14.4189 84.6626 14.4189C84.0551 14.4189 83.5626 14.9114 83.5626 15.5189C83.5626 16.1265 84.0551 16.6189 84.6626 16.6189Z" fill="white"/>
    <path d="M84.6626 29.7779C86.1428 29.7779 87.3426 28.578 87.3426 27.0979C87.3426 25.6178 86.1428 24.4179 84.6626 24.4179C83.1825 24.4179 81.9826 25.6178 81.9826 27.0979C81.9826 28.578 83.1825 29.7779 84.6626 29.7779Z" fill="white"/>
    <path d="M84.6626 41.9168C86.452 41.9168 87.9026 40.4662 87.9026 38.6768C87.9026 36.8874 86.452 35.4368 84.6626 35.4368C82.8732 35.4368 81.4226 36.8874 81.4226 38.6768C81.4226 40.4662 82.8732 41.9168 84.6626 41.9168Z" fill="white"/>
    <path d="M84.6626 54.1058C86.7889 54.1058 88.5126 52.3821 88.5126 50.2558C88.5126 48.1295 86.7889 46.4058 84.6626 46.4058C82.5363 46.4058 80.8126 48.1295 80.8126 50.2558C80.8126 52.3821 82.5363 54.1058 84.6626 54.1058Z" fill="white"/>
    <path d="M84.6626 63.6147C85.6457 63.6147 86.4426 62.8178 86.4426 61.8347C86.4426 60.8517 85.6457 60.0547 84.6626 60.0547C83.6796 60.0547 82.8826 60.8517 82.8826 61.8347C82.8826 62.8178 83.6796 63.6147 84.6626 63.6147Z" fill="white"/>
    <path d="M84.6626 75.4937C85.8114 75.4937 86.7426 74.5624 86.7426 73.4137C86.7426 72.2649 85.8114 71.3337 84.6626 71.3337C83.5139 71.3337 82.5826 72.2649 82.5826 73.4137C82.5826 74.5624 83.5139 75.4937 84.6626 75.4937Z" fill="white"/>
    <path d="M84.6626 86.4326C85.4579 86.4326 86.1026 85.7879 86.1026 84.9926C86.1026 84.1973 85.4579 83.5526 84.6626 83.5526C83.8673 83.5526 83.2226 84.1973 83.2226 84.9926C83.2226 85.7879 83.8673 86.4326 84.6626 86.4326Z" fill="white"/>
    <path d="M84.6626 98.7616C85.8721 98.7616 86.8526 97.7811 86.8526 96.5716C86.8526 95.3621 85.8721 94.3816 84.6626 94.3816C83.4531 94.3816 82.4726 95.3621 82.4726 96.5716C82.4726 97.7811 83.4531 98.7616 84.6626 98.7616Z" fill="white"/>
    <path d="M84.6626 111.961C86.7668 111.961 88.4726 110.255 88.4726 108.151C88.4726 106.046 86.7668 104.341 84.6626 104.341C82.5584 104.341 80.8526 106.046 80.8526 108.151C80.8526 110.255 82.5584 111.961 84.6626 111.961Z" fill="white"/>
    <path d="M84.6626 123.699C86.8552 123.699 88.6326 121.922 88.6326 119.729C88.6326 117.537 86.8552 115.759 84.6626 115.759C82.4701 115.759 80.6926 117.537 80.6926 119.729C80.6926 121.922 82.4701 123.699 84.6626 123.699Z" fill="white"/>
    <path d="M84.6626 134.128C86.2201 134.128 87.4826 132.866 87.4826 131.308C87.4826 129.751 86.2201 128.488 84.6626 128.488C83.1052 128.488 81.8426 129.751 81.8426 131.308C81.8426 132.866 83.1052 134.128 84.6626 134.128Z" fill="white"/>
    <path d="M84.6626 145.177C85.9274 145.177 86.9526 144.152 86.9526 142.887C86.9526 141.623 85.9274 140.597 84.6626 140.597C83.3979 140.597 82.3726 141.623 82.3726 142.887C82.3726 144.152 83.3979 145.177 84.6626 145.177Z" fill="white"/>
    <path d="M84.6626 156.566C85.8224 156.566 86.7626 155.626 86.7626 154.466C86.7626 153.307 85.8224 152.366 84.6626 152.366C83.5028 152.366 82.5626 153.307 82.5626 154.466C82.5626 155.626 83.5028 156.566 84.6626 156.566Z" fill="white"/>
    <path d="M84.6626 167.375C85.3972 167.375 85.9926 166.78 85.9926 166.045C85.9926 165.311 85.3972 164.715 84.6626 164.715C83.9281 164.715 83.3326 165.311 83.3326 166.045C83.3326 166.78 83.9281 167.375 84.6626 167.375Z" fill="white"/>
    <path d="M84.6626 180.034C85.9936 180.034 87.0726 178.955 87.0726 177.624C87.0726 176.293 85.9936 175.214 84.6626 175.214C83.3316 175.214 82.2526 176.293 82.2526 177.624C82.2526 178.955 83.3316 180.034 84.6626 180.034Z" fill="white"/>
    <path d="M84.6626 190.973C85.6402 190.973 86.4326 190.181 86.4326 189.203C86.4326 188.226 85.6402 187.433 84.6626 187.433C83.6851 187.433 82.8926 188.226 82.8926 189.203C82.8926 190.181 83.6851 190.973 84.6626 190.973Z" fill="white"/>
    <path d="M84.6626 202.682C85.712 202.682 86.5626 201.831 86.5626 200.782C86.5626 199.733 85.712 198.882 84.6626 198.882C83.6133 198.882 82.7626 199.733 82.7626 200.782C82.7626 201.831 83.6133 202.682 84.6626 202.682Z" fill="white"/>
    <path d="M84.6626 215.051C86.1483 215.051 87.3526 213.847 87.3526 212.361C87.3526 210.875 86.1483 209.671 84.6626 209.671C83.177 209.671 81.9726 210.875 81.9726 212.361C81.9726 213.847 83.177 215.051 84.6626 215.051Z" fill="white"/>
    <path d="M96.2416 7.58C98.2519 7.58 99.8816 5.95032 99.8816 3.94C99.8816 1.92968 98.2519 0.3 96.2416 0.3C94.2313 0.3 92.6016 1.92968 92.6016 3.94C92.6016 5.95032 94.2313 7.58 96.2416 7.58Z" fill="white"/>
    <path d="M96.2416 17.2189C97.1805 17.2189 97.9416 16.4578 97.9416 15.5189C97.9416 14.5801 97.1805 13.8189 96.2416 13.8189C95.3027 13.8189 94.5416 14.5801 94.5416 15.5189C94.5416 16.4578 95.3027 17.2189 96.2416 17.2189Z" fill="white"/>
    <path d="M96.2416 29.0679C97.3296 29.0679 98.2116 28.1859 98.2116 27.0979C98.2116 26.0099 97.3296 25.1279 96.2416 25.1279C95.1536 25.1279 94.2716 26.0099 94.2716 27.0979C94.2716 28.1859 95.1536 29.0679 96.2416 29.0679Z" fill="white"/>
    <path d="M96.2416 42.2668C98.2243 42.2668 99.8316 40.6595 99.8316 38.6768C99.8316 36.6941 98.2243 35.0868 96.2416 35.0868C94.2589 35.0868 92.6516 36.6941 92.6516 38.6768C92.6516 40.6595 94.2589 42.2668 96.2416 42.2668Z" fill="white"/>
    <path d="M96.2416 52.1858C97.3075 52.1858 98.1716 51.3217 98.1716 50.2558C98.1716 49.1899 97.3075 48.3258 96.2416 48.3258C95.1757 48.3258 94.3116 49.1899 94.3116 50.2558C94.3116 51.3217 95.1757 52.1858 96.2416 52.1858Z" fill="white"/>
    <path d="M96.2416 65.6947C98.3734 65.6947 100.102 63.9666 100.102 61.8347C100.102 59.7029 98.3734 57.9747 96.2416 57.9747C94.1098 57.9747 92.3816 59.7029 92.3816 61.8347C92.3816 63.9666 94.1098 65.6947 96.2416 65.6947Z" fill="white"/>
    <path d="M96.2416 75.3037C97.2854 75.3037 98.1316 74.4575 98.1316 73.4137C98.1316 72.3699 97.2854 71.5237 96.2416 71.5237C95.1978 71.5237 94.3516 72.3699 94.3516 73.4137C94.3516 74.4575 95.1978 75.3037 96.2416 75.3037Z" fill="white"/>
    <path d="M96.2416 88.0226C97.915 88.0226 99.2716 86.6661 99.2716 84.9926C99.2716 83.3192 97.915 81.9626 96.2416 81.9626C94.5682 81.9626 93.2116 83.3192 93.2116 84.9926C93.2116 86.6661 94.5682 88.0226 96.2416 88.0226Z" fill="white"/>
    <path d="M96.2416 100.292C98.2961 100.292 99.9616 98.6261 99.9616 96.5716C99.9616 94.5171 98.2961 92.8516 96.2416 92.8516C94.1871 92.8516 92.5216 94.5171 92.5216 96.5716C92.5216 98.6261 94.1871 100.292 96.2416 100.292Z" fill="white"/>
    <path d="M96.2416 109.631C97.059 109.631 97.7216 108.968 97.7216 108.151C97.7216 107.333 97.059 106.671 96.2416 106.671C95.4242 106.671 94.7616 107.333 94.7616 108.151C94.7616 108.968 95.4242 109.631 96.2416 109.631Z" fill="white"/>
    <path d="M96.2416 121.119C97.0093 121.119 97.6316 120.497 97.6316 119.729C97.6316 118.962 97.0093 118.339 96.2416 118.339C95.4739 118.339 94.8516 118.962 94.8516 119.729C94.8516 120.497 95.4739 121.119 96.2416 121.119Z" fill="white"/>
    <path d="M96.2416 134.538C98.0255 134.538 99.4716 133.092 99.4716 131.308C99.4716 129.525 98.0255 128.078 96.2416 128.078C94.4577 128.078 93.0116 129.525 93.0116 131.308C93.0116 133.092 94.4577 134.538 96.2416 134.538Z" fill="white"/>
    <path d="M96.2416 146.737C98.3679 146.737 100.092 145.014 100.092 142.887C100.092 140.761 98.3679 139.037 96.2416 139.037C94.1153 139.037 92.3916 140.761 92.3916 142.887C92.3916 145.014 94.1153 146.737 96.2416 146.737Z" fill="white"/>
    <path d="M96.2416 157.356C97.8377 157.356 99.1316 156.062 99.1316 154.466C99.1316 152.87 97.8377 151.576 96.2416 151.576C94.6455 151.576 93.3516 152.87 93.3516 154.466C93.3516 156.062 94.6455 157.356 96.2416 157.356Z" fill="white"/>
    <path d="M96.2416 169.305C98.042 169.305 99.5016 167.846 99.5016 166.045C99.5016 164.245 98.042 162.785 96.2416 162.785C94.4411 162.785 92.9816 164.245 92.9816 166.045C92.9816 167.846 94.4411 169.305 96.2416 169.305Z" fill="white"/>
    <path d="M96.2416 181.324C98.285 181.324 99.9416 179.668 99.9416 177.624C99.9416 175.581 98.285 173.924 96.2416 173.924C94.1981 173.924 92.5416 175.581 92.5416 177.624C92.5416 179.668 94.1981 181.324 96.2416 181.324Z" fill="white"/>
    <path d="M96.2416 191.903C97.7327 191.903 98.9416 190.694 98.9416 189.203C98.9416 187.712 97.7327 186.503 96.2416 186.503C94.7504 186.503 93.5416 187.712 93.5416 189.203C93.5416 190.694 94.7504 191.903 96.2416 191.903Z" fill="white"/>
    <path d="M96.2416 202.682C97.2909 202.682 98.1416 201.831 98.1416 200.782C98.1416 199.733 97.2909 198.882 96.2416 198.882C95.1922 198.882 94.3416 199.733 94.3416 200.782C94.3416 201.831 95.1922 202.682 96.2416 202.682Z" fill="white"/>
    <path d="M96.2416 213.531C96.8878 213.531 97.4116 213.007 97.4116 212.361C97.4116 211.715 96.8878 211.191 96.2416 211.191C95.5954 211.191 95.0716 211.715 95.0716 212.361C95.0716 213.007 95.5954 213.531 96.2416 213.531Z" fill="white"/>
    <path d="M107.821 6.07C108.997 6.07 109.951 5.11637 109.951 3.94C109.951 2.76363 108.997 1.81 107.821 1.81C106.644 1.81 105.691 2.76363 105.691 3.94C105.691 5.11637 106.644 6.07 107.821 6.07Z" fill="white"/>
    <path d="M107.821 18.7589C109.61 18.7589 111.061 17.3084 111.061 15.5189C111.061 13.7295 109.61 12.2789 107.821 12.2789C106.031 12.2789 104.581 13.7295 104.581 15.5189C104.581 17.3084 106.031 18.7589 107.821 18.7589Z" fill="white"/>
    <path d="M107.821 28.9279C108.831 28.9279 109.651 28.1086 109.651 27.0979C109.651 26.0872 108.831 25.2679 107.821 25.2679C106.81 25.2679 105.991 26.0872 105.991 27.0979C105.991 28.1086 106.81 28.9279 107.821 28.9279Z" fill="white"/>
    <path d="M107.821 40.7368C108.958 40.7368 109.881 39.8146 109.881 38.6768C109.881 37.5391 108.958 36.6168 107.821 36.6168C106.683 36.6168 105.761 37.5391 105.761 38.6768C105.761 39.8146 106.683 40.7368 107.821 40.7368Z" fill="white"/>
    <path d="M107.821 52.1858C108.886 52.1858 109.751 51.3217 109.751 50.2558C109.751 49.1899 108.886 48.3258 107.821 48.3258C106.755 48.3258 105.891 49.1899 105.891 50.2558C105.891 51.3217 106.755 52.1858 107.821 52.1858Z" fill="white"/>
    <path d="M107.821 63.6747C108.837 63.6747 109.661 62.8509 109.661 61.8347C109.661 60.8185 108.837 59.9947 107.821 59.9947C106.804 59.9947 105.981 60.8185 105.981 61.8347C105.981 62.8509 106.804 63.6747 107.821 63.6747Z" fill="white"/>
    <path d="M107.821 76.8337C109.709 76.8337 111.241 75.3025 111.241 73.4137C111.241 71.5249 109.709 69.9937 107.821 69.9937C105.932 69.9937 104.401 71.5249 104.401 73.4137C104.401 75.3025 105.932 76.8337 107.821 76.8337Z" fill="white"/>
    <path d="M107.821 87.3526C109.124 87.3526 110.181 86.296 110.181 84.9926C110.181 83.6892 109.124 82.6326 107.821 82.6326C106.517 82.6326 105.461 83.6892 105.461 84.9926C105.461 86.296 106.517 87.3526 107.821 87.3526Z" fill="white"/>
    <path d="M107.821 99.3416C109.35 99.3416 110.591 98.1014 110.591 96.5716C110.591 95.0418 109.35 93.8016 107.821 93.8016C106.291 93.8016 105.051 95.0418 105.051 96.5716C105.051 98.1014 106.291 99.3416 107.821 99.3416Z" fill="white"/>
    <path d="M107.821 110.601C109.174 110.601 110.271 109.504 110.271 108.151C110.271 106.797 109.174 105.701 107.821 105.701C106.467 105.701 105.371 106.797 105.371 108.151C105.371 109.504 106.467 110.601 107.821 110.601Z" fill="white"/>
    <path d="M107.821 122.149C109.157 122.149 110.241 121.066 110.241 119.729C110.241 118.393 109.157 117.309 107.821 117.309C106.484 117.309 105.401 118.393 105.401 119.729C105.401 121.066 106.484 122.149 107.821 122.149Z" fill="white"/>
    <path d="M107.821 135.038C109.881 135.038 111.551 133.368 111.551 131.308C111.551 129.248 109.881 127.578 107.821 127.578C105.761 127.578 104.091 129.248 104.091 131.308C104.091 133.368 105.761 135.038 107.821 135.038Z" fill="white"/>
    <path d="M107.821 145.437C109.229 145.437 110.371 144.296 110.371 142.887C110.371 141.479 109.229 140.337 107.821 140.337C106.412 140.337 105.271 141.479 105.271 142.887C105.271 144.296 106.412 145.437 107.821 145.437Z" fill="white"/>
    <path d="M107.821 156.126C108.737 156.126 109.481 155.383 109.481 154.466C109.481 153.55 108.737 152.806 107.821 152.806C106.904 152.806 106.161 153.55 106.161 154.466C106.161 155.383 106.904 156.126 107.821 156.126Z" fill="white"/>
    <path d="M107.821 168.365C109.102 168.365 110.141 167.327 110.141 166.045C110.141 164.764 109.102 163.725 107.821 163.725C106.539 163.725 105.501 164.764 105.501 166.045C105.501 167.327 106.539 168.365 107.821 168.365Z" fill="white"/>
    <path d="M107.821 178.974C108.566 178.974 109.171 178.37 109.171 177.624C109.171 176.879 108.566 176.274 107.821 176.274C107.075 176.274 106.471 176.879 106.471 177.624C106.471 178.37 107.075 178.974 107.821 178.974Z" fill="white"/>
    <path d="M107.821 192.463C109.621 192.463 111.081 191.004 111.081 189.203C111.081 187.403 109.621 185.943 107.821 185.943C106.02 185.943 104.561 187.403 104.561 189.203C104.561 191.004 106.02 192.463 107.821 192.463Z" fill="white"/>
    <path d="M107.821 201.822C108.395 201.822 108.861 201.356 108.861 200.782C108.861 200.208 108.395 199.742 107.821 199.742C107.246 199.742 106.781 200.208 106.781 200.782C106.781 201.356 107.246 201.822 107.821 201.822Z" fill="white"/>
    <path d="M107.821 215.021C109.29 215.021 110.481 213.83 110.481 212.361C110.481 210.892 109.29 209.701 107.821 209.701C106.351 209.701 105.161 210.892 105.161 212.361C105.161 213.83 106.351 215.021 107.821 215.021Z" fill="white"/>
    <path d="M119.399 6.4C120.758 6.4 121.859 5.29862 121.859 3.94C121.859 2.58138 120.758 1.48 119.399 1.48C118.041 1.48 116.939 2.58138 116.939 3.94C116.939 5.29862 118.041 6.4 119.399 6.4Z" fill="white"/>
    <path d="M119.399 17.2589C120.36 17.2589 121.139 16.4799 121.139 15.5189C121.139 14.558 120.36 13.7789 119.399 13.7789C118.438 13.7789 117.659 14.558 117.659 15.5189C117.659 16.4799 118.438 17.2589 119.399 17.2589Z" fill="white"/>
    <path d="M119.399 30.0479C121.029 30.0479 122.349 28.7271 122.349 27.0979C122.349 25.4687 121.029 24.1479 119.399 24.1479C117.77 24.1479 116.449 25.4687 116.449 27.0979C116.449 28.7271 117.77 30.0479 119.399 30.0479Z" fill="white"/>
    <path d="M119.399 42.4668C121.493 42.4668 123.189 40.77 123.189 38.6768C123.189 36.5837 121.493 34.8868 119.399 34.8868C117.306 34.8868 115.609 36.5837 115.609 38.6768C115.609 40.77 117.306 42.4668 119.399 42.4668Z" fill="white"/>
    <path d="M119.399 52.9158C120.869 52.9158 122.059 51.7249 122.059 50.2558C122.059 48.7867 120.869 47.5958 119.399 47.5958C117.93 47.5958 116.739 48.7867 116.739 50.2558C116.739 51.7249 117.93 52.9158 119.399 52.9158Z" fill="white"/>
    <path d="M119.399 64.3447C120.786 64.3447 121.909 63.221 121.909 61.8347C121.909 60.4485 120.786 59.3247 119.399 59.3247C118.013 59.3247 116.889 60.4485 116.889 61.8347C116.889 63.221 118.013 64.3447 119.399 64.3447Z" fill="white"/>
    <path d="M119.399 74.6837C120.101 74.6837 120.669 74.1151 120.669 73.4137C120.669 72.7123 120.101 72.1437 119.399 72.1437C118.698 72.1437 118.129 72.7123 118.129 73.4137C118.129 74.1151 118.698 74.6837 119.399 74.6837Z" fill="white"/>
    <path d="M119.399 88.0926C121.112 88.0926 122.499 86.7047 122.499 84.9926C122.499 83.2805 121.112 81.8926 119.399 81.8926C117.687 81.8926 116.299 83.2805 116.299 84.9926C116.299 86.7047 117.687 88.0926 119.399 88.0926Z" fill="white"/>
    <path d="M119.399 98.3116C120.36 98.3116 121.139 97.5326 121.139 96.5716C121.139 95.6106 120.36 94.8316 119.399 94.8316C118.438 94.8316 117.659 95.6106 117.659 96.5716C117.659 97.5326 118.438 98.3116 119.399 98.3116Z" fill="white"/>
    <path d="M119.399 109.741C120.278 109.741 120.989 109.029 120.989 108.151C120.989 107.272 120.278 106.561 119.399 106.561C118.521 106.561 117.809 107.272 117.809 108.151C117.809 109.029 118.521 109.741 119.399 109.741Z" fill="white"/>
    <path d="M119.399 122.729C121.056 122.729 122.399 121.386 122.399 119.729C122.399 118.073 121.056 116.729 119.399 116.729C117.743 116.729 116.399 118.073 116.399 119.729C116.399 121.386 117.743 122.729 119.399 122.729Z" fill="white"/>
    <path d="M119.399 135.288C121.598 135.288 123.379 133.507 123.379 131.308C123.379 129.11 121.598 127.328 119.399 127.328C117.201 127.328 115.419 129.11 115.419 131.308C115.419 133.507 117.201 135.288 119.399 135.288Z" fill="white"/>
    <path d="M119.399 146.067C121.156 146.067 122.579 144.644 122.579 142.887C122.579 141.131 121.156 139.707 119.399 139.707C117.643 139.707 116.219 141.131 116.219 142.887C116.219 144.644 117.643 146.067 119.399 146.067Z" fill="white"/>
    <path d="M119.399 157.176C120.896 157.176 122.109 155.963 122.109 154.466C122.109 152.97 120.896 151.756 119.399 151.756C117.903 151.756 116.689 152.97 116.689 154.466C116.689 155.963 117.903 157.176 119.399 157.176Z" fill="white"/>
    <path d="M119.399 169.815C121.482 169.815 123.169 168.127 123.169 166.045C123.169 163.963 121.482 162.275 119.399 162.275C117.317 162.275 115.629 163.963 115.629 166.045C115.629 168.127 117.317 169.815 119.399 169.815Z" fill="white"/>
    <path d="M119.399 181.534C121.559 181.534 123.309 179.784 123.309 177.624C123.309 175.465 121.559 173.714 119.399 173.714C117.24 173.714 115.489 175.465 115.489 177.624C115.489 179.784 117.24 181.534 119.399 181.534Z" fill="white"/>
    <path d="M119.399 192.073C120.985 192.073 122.269 190.788 122.269 189.203C122.269 187.618 120.985 186.333 119.399 186.333C117.814 186.333 116.529 187.618 116.529 189.203C116.529 190.788 117.814 192.073 119.399 192.073Z" fill="white"/>
    <path d="M119.399 202.032C120.09 202.032 120.649 201.472 120.649 200.782C120.649 200.092 120.09 199.532 119.399 199.532C118.709 199.532 118.149 200.092 118.149 200.782C118.149 201.472 118.709 202.032 119.399 202.032Z" fill="white"/>
    <path d="M119.399 214.861C120.78 214.861 121.899 213.742 121.899 212.361C121.899 210.98 120.78 209.861 119.399 209.861C118.019 209.861 116.899 210.98 116.899 212.361C116.899 213.742 118.019 214.861 119.399 214.861Z" fill="white"/>
    <path d="M130.978 7.88C133.154 7.88 134.918 6.116 134.918 3.94C134.918 1.764 133.154 0 130.978 0C128.802 0 127.038 1.764 127.038 3.94C127.038 6.116 128.802 7.88 130.978 7.88Z" fill="white"/>
    <path d="M130.978 18.6689C132.718 18.6689 134.128 17.2586 134.128 15.5189C134.128 13.7793 132.718 12.3689 130.978 12.3689C129.239 12.3689 127.828 13.7793 127.828 15.5189C127.828 17.2586 129.239 18.6689 130.978 18.6689Z" fill="white"/>
    <path d="M130.978 29.6379C132.381 29.6379 133.518 28.5007 133.518 27.0979C133.518 25.6951 132.381 24.5579 130.978 24.5579C129.576 24.5579 128.438 25.6951 128.438 27.0979C128.438 28.5007 129.576 29.6379 130.978 29.6379Z" fill="white"/>
    <path d="M130.978 40.0968C131.763 40.0968 132.398 39.4611 132.398 38.6768C132.398 37.8926 131.763 37.2568 130.978 37.2568C130.194 37.2568 129.558 37.8926 129.558 38.6768C129.558 39.4611 130.194 40.0968 130.978 40.0968Z" fill="white"/>
    <path d="M130.978 53.3958C132.713 53.3958 134.118 51.99 134.118 50.2558C134.118 48.5216 132.713 47.1158 130.978 47.1158C129.244 47.1158 127.838 48.5216 127.838 50.2558C127.838 51.99 129.244 53.3958 130.978 53.3958Z" fill="white"/>
    <path d="M130.978 65.7447C133.138 65.7447 134.888 63.9942 134.888 61.8347C134.888 59.6753 133.138 57.9247 130.978 57.9247C128.819 57.9247 127.068 59.6753 127.068 61.8347C127.068 63.9942 128.819 65.7447 130.978 65.7447Z" fill="white"/>
    <path d="M130.978 75.1037C131.912 75.1037 132.668 74.347 132.668 73.4137C132.668 72.4803 131.912 71.7237 130.978 71.7237C130.045 71.7237 129.288 72.4803 129.288 73.4137C129.288 74.347 130.045 75.1037 130.978 75.1037Z" fill="white"/>
    <path d="M130.978 86.5026C131.812 86.5026 132.488 85.8266 132.488 84.9926C132.488 84.1587 131.812 83.4826 130.978 83.4826C130.144 83.4826 129.468 84.1587 129.468 84.9926C129.468 85.8266 130.144 86.5026 130.978 86.5026Z" fill="white"/>
    <path d="M130.978 100.442C133.116 100.442 134.848 98.7089 134.848 96.5716C134.848 94.4342 133.116 92.7016 130.978 92.7016C128.841 92.7016 127.108 94.4342 127.108 96.5716C127.108 98.7089 128.841 100.442 130.978 100.442Z" fill="white"/>
    <path d="M130.978 112.101C133.16 112.101 134.928 110.332 134.928 108.151C134.928 105.969 133.16 104.201 130.978 104.201C128.797 104.201 127.028 105.969 127.028 108.151C127.028 110.332 128.797 112.101 130.978 112.101Z" fill="white"/>
    <path d="M130.978 121.759C132.1 121.759 133.008 120.851 133.008 119.729C133.008 118.608 132.1 117.699 130.978 117.699C129.857 117.699 128.948 118.608 128.948 119.729C128.948 120.851 129.857 121.759 130.978 121.759Z" fill="white"/>
    <path d="M130.978 134.718C132.862 134.718 134.388 133.192 134.388 131.308C134.388 129.425 132.862 127.898 130.978 127.898C129.095 127.898 127.568 129.425 127.568 131.308C127.568 133.192 129.095 134.718 130.978 134.718Z" fill="white"/>
    <path d="M130.978 144.947C132.116 144.947 133.038 144.025 133.038 142.887C133.038 141.75 132.116 140.827 130.978 140.827C129.841 140.827 128.918 141.75 128.918 142.887C128.918 144.025 129.841 144.947 130.978 144.947Z" fill="white"/>
    <path d="M130.978 156.676C132.199 156.676 133.188 155.687 133.188 154.466C133.188 153.246 132.199 152.256 130.978 152.256C129.758 152.256 128.768 153.246 128.768 154.466C128.768 155.687 129.758 156.676 130.978 156.676Z" fill="white"/>
    <path d="M130.978 168.535C132.354 168.535 133.468 167.42 133.468 166.045C133.468 164.67 132.354 163.555 130.978 163.555C129.603 163.555 128.488 164.67 128.488 166.045C128.488 167.42 129.603 168.535 130.978 168.535Z" fill="white"/>
    <path d="M130.978 178.654C131.547 178.654 132.008 178.193 132.008 177.624C132.008 177.055 131.547 176.594 130.978 176.594C130.41 176.594 129.948 177.055 129.948 177.624C129.948 178.193 130.41 178.654 130.978 178.654Z" fill="white"/>
    <path d="M130.978 191.623C132.315 191.623 133.398 190.54 133.398 189.203C133.398 187.867 132.315 186.783 130.978 186.783C129.642 186.783 128.558 187.867 128.558 189.203C128.558 190.54 129.642 191.623 130.978 191.623Z" fill="white"/>
    <path d="M130.978 203.592C132.53 203.592 133.788 202.334 133.788 200.782C133.788 199.23 132.53 197.972 130.978 197.972C129.427 197.972 128.168 199.23 128.168 200.782C128.168 202.334 129.427 203.592 130.978 203.592Z" fill="white"/>
    <path d="M130.978 214.761C132.304 214.761 133.378 213.687 133.378 212.361C133.378 211.036 132.304 209.961 130.978 209.961C129.653 209.961 128.578 211.036 128.578 212.361C128.578 213.687 129.653 214.761 130.978 214.761Z" fill="white"/>
    <path d="M142.557 7.27C144.396 7.27 145.887 5.77911 145.887 3.94C145.887 2.10089 144.396 0.61 142.557 0.61C140.718 0.61 139.227 2.10089 139.227 3.94C139.227 5.77911 140.718 7.27 142.557 7.27Z" fill="white"/>
    <path d="M142.557 18.8489C144.396 18.8489 145.887 17.3581 145.887 15.5189C145.887 13.6798 144.396 12.1889 142.557 12.1889C140.718 12.1889 139.227 13.6798 139.227 15.5189C139.227 17.3581 140.718 18.8489 142.557 18.8489Z" fill="white"/>
    <path d="M142.557 28.3979C143.275 28.3979 143.857 27.8159 143.857 27.0979C143.857 26.3799 143.275 25.7979 142.557 25.7979C141.839 25.7979 141.257 26.3799 141.257 27.0979C141.257 27.8159 141.839 28.3979 142.557 28.3979Z" fill="white"/>
    <path d="M142.557 40.0668C143.325 40.0668 143.947 39.4445 143.947 38.6768C143.947 37.9092 143.325 37.2868 142.557 37.2868C141.79 37.2868 141.167 37.9092 141.167 38.6768C141.167 39.4445 141.79 40.0668 142.557 40.0668Z" fill="white"/>
    <path d="M142.557 53.1258C144.142 53.1258 145.427 51.8408 145.427 50.2558C145.427 48.6707 144.142 47.3858 142.557 47.3858C140.972 47.3858 139.687 48.6707 139.687 50.2558C139.687 51.8408 140.972 53.1258 142.557 53.1258Z" fill="white"/>
    <path d="M142.557 64.9547C144.281 64.9547 145.677 63.5579 145.677 61.8347C145.677 60.1116 144.281 58.7147 142.557 58.7147C140.834 58.7147 139.437 60.1116 139.437 61.8347C139.437 63.5579 140.834 64.9547 142.557 64.9547Z" fill="white"/>
    <path d="M142.557 76.6537C144.347 76.6537 145.797 75.2031 145.797 73.4137C145.797 71.6243 144.347 70.1737 142.557 70.1737C140.768 70.1737 139.317 71.6243 139.317 73.4137C139.317 75.2031 140.768 76.6537 142.557 76.6537Z" fill="white"/>
    <path d="M142.557 87.4626C143.922 87.4626 145.027 86.3568 145.027 84.9926C145.027 83.6285 143.922 82.5226 142.557 82.5226C141.193 82.5226 140.087 83.6285 140.087 84.9926C140.087 86.3568 141.193 87.4626 142.557 87.4626Z" fill="white"/>
    <path d="M142.557 98.4516C143.596 98.4516 144.437 97.6099 144.437 96.5716C144.437 95.5333 143.596 94.6916 142.557 94.6916C141.519 94.6916 140.677 95.5333 140.677 96.5716C140.677 97.6099 141.519 98.4516 142.557 98.4516Z" fill="white"/>
    <path d="M142.557 109.801C143.469 109.801 144.207 109.062 144.207 108.151C144.207 107.239 143.469 106.501 142.557 106.501C141.646 106.501 140.907 107.239 140.907 108.151C140.907 109.062 141.646 109.801 142.557 109.801Z" fill="white"/>
    <path d="M142.557 122.279C143.966 122.279 145.107 121.138 145.107 119.729C145.107 118.321 143.966 117.179 142.557 117.179C141.149 117.179 140.007 118.321 140.007 119.729C140.007 121.138 141.149 122.279 142.557 122.279Z" fill="white"/>
    <path d="M142.557 133.968C144.026 133.968 145.217 132.778 145.217 131.308C145.217 129.839 144.026 128.648 142.557 128.648C141.088 128.648 139.897 129.839 139.897 131.308C139.897 132.778 141.088 133.968 142.557 133.968Z" fill="white"/>
    <path d="M142.557 146.857C144.75 146.857 146.527 145.08 146.527 142.887C146.527 140.695 144.75 138.917 142.557 138.917C140.365 138.917 138.587 140.695 138.587 142.887C138.587 145.08 140.365 146.857 142.557 146.857Z" fill="white"/>
    <path d="M142.557 156.016C143.413 156.016 144.107 155.322 144.107 154.466C144.107 153.61 143.413 152.916 142.557 152.916C141.701 152.916 141.007 153.61 141.007 154.466C141.007 155.322 141.701 156.016 142.557 156.016Z" fill="white"/>
    <path d="M142.557 169.265C144.336 169.265 145.777 167.824 145.777 166.045C145.777 164.267 144.336 162.825 142.557 162.825C140.779 162.825 139.337 164.267 139.337 166.045C139.337 167.824 140.779 169.265 142.557 169.265Z" fill="white"/>
    <path d="M142.557 179.444C143.563 179.444 144.377 178.629 144.377 177.624C144.377 176.619 143.563 175.804 142.557 175.804C141.552 175.804 140.737 176.619 140.737 177.624C140.737 178.629 141.552 179.444 142.557 179.444Z" fill="white"/>
    <path d="M142.557 192.753C144.518 192.753 146.107 191.164 146.107 189.203C146.107 187.243 144.518 185.653 142.557 185.653C140.597 185.653 139.007 187.243 139.007 189.203C139.007 191.164 140.597 192.753 142.557 192.753Z" fill="white"/>
    <path d="M142.557 202.332C143.413 202.332 144.107 201.638 144.107 200.782C144.107 199.926 143.413 199.232 142.557 199.232C141.701 199.232 141.007 199.926 141.007 200.782C141.007 201.638 141.701 202.332 142.557 202.332Z" fill="white"/>
    <path d="M142.557 213.371C143.115 213.371 143.567 212.919 143.567 212.361C143.567 211.803 143.115 211.351 142.557 211.351C142 211.351 141.547 211.803 141.547 212.361C141.547 212.919 142 213.371 142.557 213.371Z" fill="white"/>
    <path d="M154.136 7.05C155.854 7.05 157.246 5.65761 157.246 3.94C157.246 2.22239 155.854 0.83 154.136 0.83C152.419 0.83 151.026 2.22239 151.026 3.94C151.026 5.65761 152.419 7.05 154.136 7.05Z" fill="white"/>
    <path d="M154.136 17.5189C155.241 17.5189 156.136 16.6235 156.136 15.5189C156.136 14.4144 155.241 13.5189 154.136 13.5189C153.032 13.5189 152.136 14.4144 152.136 15.5189C152.136 16.6235 153.032 17.5189 154.136 17.5189Z" fill="white"/>
    <path d="M154.136 29.2579C155.329 29.2579 156.296 28.2908 156.296 27.0979C156.296 25.905 155.329 24.9379 154.136 24.9379C152.943 24.9379 151.976 25.905 151.976 27.0979C151.976 28.2908 152.943 29.2579 154.136 29.2579Z" fill="white"/>
    <path d="M154.136 40.5568C155.175 40.5568 156.016 39.7151 156.016 38.6768C156.016 37.6386 155.175 36.7968 154.136 36.7968C153.098 36.7968 152.256 37.6386 152.256 38.6768C152.256 39.7151 153.098 40.5568 154.136 40.5568Z" fill="white"/>
    <path d="M154.136 52.6958C155.484 52.6958 156.576 51.6034 156.576 50.2558C156.576 48.9082 155.484 47.8158 154.136 47.8158C152.789 47.8158 151.696 48.9082 151.696 50.2558C151.696 51.6034 152.789 52.6958 154.136 52.6958Z" fill="white"/>
    <path d="M154.136 64.8947C155.826 64.8947 157.196 63.5247 157.196 61.8347C157.196 60.1447 155.826 58.7747 154.136 58.7747C152.446 58.7747 151.076 60.1447 151.076 61.8347C151.076 63.5247 152.446 64.8947 154.136 64.8947Z" fill="white"/>
    <path d="M154.136 76.4637C155.821 76.4637 157.186 75.0982 157.186 73.4137C157.186 71.7292 155.821 70.3637 154.136 70.3637C152.452 70.3637 151.086 71.7292 151.086 73.4137C151.086 75.0982 152.452 76.4637 154.136 76.4637Z" fill="white"/>
    <path d="M154.136 88.4426C156.042 88.4426 157.586 86.898 157.586 84.9926C157.586 83.0872 156.042 81.5426 154.136 81.5426C152.231 81.5426 150.686 83.0872 150.686 84.9926C150.686 86.898 152.231 88.4426 154.136 88.4426Z" fill="white"/>
    <path d="M154.136 99.6316C155.826 99.6316 157.196 98.2616 157.196 96.5716C157.196 94.8816 155.826 93.5116 154.136 93.5116C152.446 93.5116 151.076 94.8816 151.076 96.5716C151.076 98.2616 152.446 99.6316 154.136 99.6316Z" fill="white"/>
    <path d="M154.136 109.771C155.031 109.771 155.756 109.045 155.756 108.151C155.756 107.256 155.031 106.531 154.136 106.531C153.242 106.531 152.516 107.256 152.516 108.151C152.516 109.045 153.242 109.771 154.136 109.771Z" fill="white"/>
    <path d="M154.136 121.459C155.092 121.459 155.866 120.685 155.866 119.729C155.866 118.774 155.092 117.999 154.136 117.999C153.181 117.999 152.406 118.774 152.406 119.729C152.406 120.685 153.181 121.459 154.136 121.459Z" fill="white"/>
    <path d="M154.136 133.278C155.224 133.278 156.106 132.396 156.106 131.308C156.106 130.22 155.224 129.338 154.136 129.338C153.048 129.338 152.166 130.22 152.166 131.308C152.166 132.396 153.048 133.278 154.136 133.278Z" fill="white"/>
    <path d="M154.136 144.777C155.18 144.777 156.026 143.931 156.026 142.887C156.026 141.844 155.18 140.997 154.136 140.997C153.093 140.997 152.246 141.844 152.246 142.887C152.246 143.931 153.093 144.777 154.136 144.777Z" fill="white"/>
    <path d="M154.136 155.596C154.76 155.596 155.266 155.09 155.266 154.466C155.266 153.842 154.76 153.336 154.136 153.336C153.512 153.336 153.006 153.842 153.006 154.466C153.006 155.09 153.512 155.596 154.136 155.596Z" fill="white"/>
    <path d="M154.136 169.655C156.13 169.655 157.746 168.039 157.746 166.045C157.746 164.052 156.13 162.435 154.136 162.435C152.143 162.435 150.526 164.052 150.526 166.045C150.526 168.039 152.143 169.655 154.136 169.655Z" fill="white"/>
    <path d="M154.136 181.434C156.241 181.434 157.946 179.728 157.946 177.624C157.946 175.52 156.241 173.814 154.136 173.814C152.032 173.814 150.326 175.52 150.326 177.624C150.326 179.728 152.032 181.434 154.136 181.434Z" fill="white"/>
    <path d="M154.136 191.543C155.429 191.543 156.476 190.496 156.476 189.203C156.476 187.911 155.429 186.863 154.136 186.863C152.844 186.863 151.796 187.911 151.796 189.203C151.796 190.496 152.844 191.543 154.136 191.543Z" fill="white"/>
    <path d="M154.136 203.012C155.368 203.012 156.366 202.014 156.366 200.782C156.366 199.551 155.368 198.552 154.136 198.552C152.905 198.552 151.906 199.551 151.906 200.782C151.906 202.014 152.905 203.012 154.136 203.012Z" fill="white"/>
    <path d="M154.136 214.001C155.042 214.001 155.776 213.267 155.776 212.361C155.776 211.455 155.042 210.721 154.136 210.721C153.231 210.721 152.496 211.455 152.496 212.361C152.496 213.267 153.231 214.001 154.136 214.001Z" fill="white"/>
    <path d="M165.715 6.87C167.333 6.87 168.645 5.55819 168.645 3.94C168.645 2.32181 167.333 1.01 165.715 1.01C164.097 1.01 162.785 2.32181 162.785 3.94C162.785 5.55819 164.097 6.87 165.715 6.87Z" fill="white"/>
    <path d="M165.715 16.7089C166.372 16.7089 166.905 16.1762 166.905 15.5189C166.905 14.8617 166.372 14.3289 165.715 14.3289C165.058 14.3289 164.525 14.8617 164.525 15.5189C164.525 16.1762 165.058 16.7089 165.715 16.7089Z" fill="white"/>
    <path d="M165.715 30.4379C167.56 30.4379 169.055 28.9425 169.055 27.0979C169.055 25.2533 167.56 23.7579 165.715 23.7579C163.871 23.7579 162.375 25.2533 162.375 27.0979C162.375 28.9425 163.871 30.4379 165.715 30.4379Z" fill="white"/>
    <path d="M165.715 40.8768C166.93 40.8768 167.915 39.8919 167.915 38.6768C167.915 37.4618 166.93 36.4768 165.715 36.4768C164.5 36.4768 163.515 37.4618 163.515 38.6768C163.515 39.8919 164.5 40.8768 165.715 40.8768Z" fill="white"/>
    <path d="M165.715 51.5258C166.417 51.5258 166.985 50.9572 166.985 50.2558C166.985 49.5544 166.417 48.9858 165.715 48.9858C165.014 48.9858 164.445 49.5544 164.445 50.2558C164.445 50.9572 165.014 51.5258 165.715 51.5258Z" fill="white"/>
    <path d="M165.715 64.0047C166.914 64.0047 167.885 63.0332 167.885 61.8347C167.885 60.6363 166.914 59.6647 165.715 59.6647C164.517 59.6647 163.545 60.6363 163.545 61.8347C163.545 63.0332 164.517 64.0047 165.715 64.0047Z" fill="white"/>
    <path d="M165.715 76.1137C167.206 76.1137 168.415 74.9049 168.415 73.4137C168.415 71.9225 167.206 70.7137 165.715 70.7137C164.224 70.7137 163.015 71.9225 163.015 73.4137C163.015 74.9049 164.224 76.1137 165.715 76.1137Z" fill="white"/>
    <path d="M165.715 87.3226C167.002 87.3226 168.045 86.2795 168.045 84.9926C168.045 83.7058 167.002 82.6626 165.715 82.6626C164.428 82.6626 163.385 83.7058 163.385 84.9926C163.385 86.2795 164.428 87.3226 165.715 87.3226Z" fill="white"/>
    <path d="M165.715 98.5216C166.792 98.5216 167.665 97.6485 167.665 96.5716C167.665 95.4946 166.792 94.6216 165.715 94.6216C164.638 94.6216 163.765 95.4946 163.765 96.5716C163.765 97.6485 164.638 98.5216 165.715 98.5216Z" fill="white"/>
    <path d="M165.715 109.611C166.522 109.611 167.175 108.957 167.175 108.151C167.175 107.344 166.522 106.691 165.715 106.691C164.909 106.691 164.255 107.344 164.255 108.151C164.255 108.957 164.909 109.611 165.715 109.611Z" fill="white"/>
    <path d="M165.715 121.289C166.577 121.289 167.275 120.591 167.275 119.729C167.275 118.868 166.577 118.169 165.715 118.169C164.854 118.169 164.155 118.868 164.155 119.729C164.155 120.591 164.854 121.289 165.715 121.289Z" fill="white"/>
    <path d="M165.715 135.278C167.908 135.278 169.685 133.501 169.685 131.308C169.685 129.116 167.908 127.338 165.715 127.338C163.523 127.338 161.745 129.116 161.745 131.308C161.745 133.501 163.523 135.278 165.715 135.278Z" fill="white"/>
    <path d="M165.715 143.907C166.279 143.907 166.735 143.451 166.735 142.887C166.735 142.324 166.279 141.867 165.715 141.867C165.152 141.867 164.695 142.324 164.695 142.887C164.695 143.451 165.152 143.907 165.715 143.907Z" fill="white"/>
    <path d="M165.715 157.956C167.643 157.956 169.205 156.394 169.205 154.466C169.205 152.539 167.643 150.976 165.715 150.976C163.788 150.976 162.225 152.539 162.225 154.466C162.225 156.394 163.788 157.956 165.715 157.956Z" fill="white"/>
    <path d="M165.715 167.715C166.638 167.715 167.385 166.968 167.385 166.045C167.385 165.123 166.638 164.375 165.715 164.375C164.793 164.375 164.045 165.123 164.045 166.045C164.045 166.968 164.793 167.715 165.715 167.715Z" fill="white"/>
    <path d="M165.715 179.534C166.77 179.534 167.625 178.679 167.625 177.624C167.625 176.569 166.77 175.714 165.715 175.714C164.66 175.714 163.805 176.569 163.805 177.624C163.805 178.679 164.66 179.534 165.715 179.534Z" fill="white"/>
    <path d="M165.715 190.703C166.544 190.703 167.215 190.032 167.215 189.203C167.215 188.375 166.544 187.703 165.715 187.703C164.887 187.703 164.215 188.375 164.215 189.203C164.215 190.032 164.887 190.703 165.715 190.703Z" fill="white"/>
    <path d="M165.715 203.042C166.963 203.042 167.975 202.03 167.975 200.782C167.975 199.534 166.963 198.522 165.715 198.522C164.467 198.522 163.455 199.534 163.455 200.782C163.455 202.03 164.467 203.042 165.715 203.042Z" fill="white"/>
    <path d="M165.715 215.801C167.615 215.801 169.155 214.261 169.155 212.361C169.155 210.461 167.615 208.921 165.715 208.921C163.815 208.921 162.275 210.461 162.275 212.361C162.275 214.261 163.815 215.801 165.715 215.801Z" fill="white"/>
    <path d="M177.294 6.54C178.73 6.54 179.894 5.37594 179.894 3.94C179.894 2.50406 178.73 1.34 177.294 1.34C175.858 1.34 174.694 2.50406 174.694 3.94C174.694 5.37594 175.858 6.54 177.294 6.54Z" fill="white"/>
    <path d="M177.294 17.8089C178.559 17.8089 179.584 16.7837 179.584 15.5189C179.584 14.2542 178.559 13.2289 177.294 13.2289C176.029 13.2289 175.004 14.2542 175.004 15.5189C175.004 16.7837 176.029 17.8089 177.294 17.8089Z" fill="white"/>
    <path d="M177.294 28.6579C178.156 28.6579 178.854 27.9595 178.854 27.0979C178.854 26.2363 178.156 25.5379 177.294 25.5379C176.433 25.5379 175.734 26.2363 175.734 27.0979C175.734 27.9595 176.433 28.6579 177.294 28.6579Z" fill="white"/>
    <path d="M177.294 40.2968C178.189 40.2968 178.914 39.5715 178.914 38.6768C178.914 37.7821 178.189 37.0568 177.294 37.0568C176.4 37.0568 175.674 37.7821 175.674 38.6768C175.674 39.5715 176.4 40.2968 177.294 40.2968Z" fill="white"/>
    <path d="M177.294 52.2458C178.393 52.2458 179.284 51.3548 179.284 50.2558C179.284 49.1567 178.393 48.2658 177.294 48.2658C176.195 48.2658 175.304 49.1567 175.304 50.2558C175.304 51.3548 176.195 52.2458 177.294 52.2458Z" fill="white"/>
    <path d="M177.294 63.3247C178.117 63.3247 178.784 62.6576 178.784 61.8347C178.784 61.0118 178.117 60.3447 177.294 60.3447C176.471 60.3447 175.804 61.0118 175.804 61.8347C175.804 62.6576 176.471 63.3247 177.294 63.3247Z" fill="white"/>
    <path d="M177.294 74.5137C177.902 74.5137 178.394 74.0212 178.394 73.4137C178.394 72.8062 177.902 72.3137 177.294 72.3137C176.687 72.3137 176.194 72.8062 176.194 73.4137C176.194 74.0212 176.687 74.5137 177.294 74.5137Z" fill="white"/>
    <path d="M177.294 87.9126C178.907 87.9126 180.214 86.6053 180.214 84.9926C180.214 83.38 178.907 82.0726 177.294 82.0726C175.682 82.0726 174.374 83.38 174.374 84.9926C174.374 86.6053 175.682 87.9126 177.294 87.9126Z" fill="white"/>
    <path d="M177.294 97.7916C177.968 97.7916 178.514 97.2454 178.514 96.5716C178.514 95.8978 177.968 95.3516 177.294 95.3516C176.62 95.3516 176.074 95.8978 176.074 96.5716C176.074 97.2454 176.62 97.7916 177.294 97.7916Z" fill="white"/>
    <path d="M177.294 110.031C178.332 110.031 179.174 109.189 179.174 108.151C179.174 107.112 178.332 106.271 177.294 106.271C176.256 106.271 175.414 107.112 175.414 108.151C175.414 109.189 176.256 110.031 177.294 110.031Z" fill="white"/>
    <path d="M177.294 121.109C178.056 121.109 178.674 120.492 178.674 119.729C178.674 118.967 178.056 118.349 177.294 118.349C176.532 118.349 175.914 118.967 175.914 119.729C175.914 120.492 176.532 121.109 177.294 121.109Z" fill="white"/>
    <path d="M177.294 133.808C178.675 133.808 179.794 132.689 179.794 131.308C179.794 129.928 178.675 128.808 177.294 128.808C175.913 128.808 174.794 129.928 174.794 131.308C174.794 132.689 175.913 133.808 177.294 133.808Z" fill="white"/>
    <path d="M177.294 144.297C178.073 144.297 178.704 143.666 178.704 142.887C178.704 142.109 178.073 141.477 177.294 141.477C176.515 141.477 175.884 142.109 175.884 142.887C175.884 143.666 176.515 144.297 177.294 144.297Z" fill="white"/>
    <path d="M177.294 158.356C179.443 158.356 181.184 156.615 181.184 154.466C181.184 152.318 179.443 150.576 177.294 150.576C175.146 150.576 173.404 152.318 173.404 154.466C173.404 156.615 175.146 158.356 177.294 158.356Z" fill="white"/>
    <path d="M177.294 168.985C178.918 168.985 180.234 167.669 180.234 166.045C180.234 164.422 178.918 163.105 177.294 163.105C175.67 163.105 174.354 164.422 174.354 166.045C174.354 167.669 175.67 168.985 177.294 168.985Z" fill="white"/>
    <path d="M177.294 179.214C178.172 179.214 178.884 178.502 178.884 177.624C178.884 176.746 178.172 176.034 177.294 176.034C176.416 176.034 175.704 176.746 175.704 177.624C175.704 178.502 176.416 179.214 177.294 179.214Z" fill="white"/>
    <path d="M177.294 192.563C179.15 192.563 180.654 191.059 180.654 189.203C180.654 187.347 179.15 185.843 177.294 185.843C175.439 185.843 173.934 187.347 173.934 189.203C173.934 191.059 175.439 192.563 177.294 192.563Z" fill="white"/>
    <path d="M177.294 203.342C178.708 203.342 179.854 202.196 179.854 200.782C179.854 199.368 178.708 198.222 177.294 198.222C175.88 198.222 174.734 199.368 174.734 200.782C174.734 202.196 175.88 203.342 177.294 203.342Z" fill="white"/>
    <path d="M177.294 215.221C178.874 215.221 180.154 213.941 180.154 212.361C180.154 210.782 178.874 209.501 177.294 209.501C175.715 209.501 174.434 210.782 174.434 212.361C174.434 213.941 175.715 215.221 177.294 215.221Z" fill="white"/>
    <path d="M188.873 7.62C190.906 7.62 192.553 5.97241 192.553 3.94C192.553 1.90759 190.906 0.26 188.873 0.26C186.841 0.26 185.193 1.90759 185.193 3.94C185.193 5.97241 186.841 7.62 188.873 7.62Z" fill="white"/>
    <path d="M188.873 17.7689C190.116 17.7689 191.123 16.7616 191.123 15.5189C191.123 14.2763 190.116 13.2689 188.873 13.2689C187.631 13.2689 186.623 14.2763 186.623 15.5189C186.623 16.7616 187.631 17.7689 188.873 17.7689Z" fill="white"/>
    <path d="M188.873 30.5779C190.795 30.5779 192.353 29.0198 192.353 27.0979C192.353 25.1759 190.795 23.6179 188.873 23.6179C186.951 23.6179 185.393 25.1759 185.393 27.0979C185.393 29.0198 186.951 30.5779 188.873 30.5779Z" fill="white"/>
    <path d="M188.873 40.4068C189.829 40.4068 190.603 39.6323 190.603 38.6768C190.603 37.7214 189.829 36.9468 188.873 36.9468C187.918 36.9468 187.143 37.7214 187.143 38.6768C187.143 39.6323 187.918 40.4068 188.873 40.4068Z" fill="white"/>
    <path d="M188.873 52.3158C190.011 52.3158 190.933 51.3935 190.933 50.2558C190.933 49.1181 190.011 48.1958 188.873 48.1958C187.735 48.1958 186.813 49.1181 186.813 50.2558C186.813 51.3935 187.735 52.3158 188.873 52.3158Z" fill="white"/>
    <path d="M188.873 62.8747C189.448 62.8747 189.913 62.4091 189.913 61.8347C189.913 61.2604 189.448 60.7947 188.873 60.7947C188.299 60.7947 187.833 61.2604 187.833 61.8347C187.833 62.4091 188.299 62.8747 188.873 62.8747Z" fill="white"/>
    <path d="M188.873 76.0537C190.331 76.0537 191.513 74.8717 191.513 73.4137C191.513 71.9557 190.331 70.7737 188.873 70.7737C187.415 70.7737 186.233 71.9557 186.233 73.4137C186.233 74.8717 187.415 76.0537 188.873 76.0537Z" fill="white"/>
    <path d="M188.873 86.9626C189.961 86.9626 190.843 86.0806 190.843 84.9926C190.843 83.9046 189.961 83.0226 188.873 83.0226C187.785 83.0226 186.903 83.9046 186.903 84.9926C186.903 86.0806 187.785 86.9626 188.873 86.9626Z" fill="white"/>
    <path d="M188.873 99.3016C190.381 99.3016 191.603 98.0793 191.603 96.5716C191.603 95.0638 190.381 93.8416 188.873 93.8416C187.365 93.8416 186.143 95.0638 186.143 96.5716C186.143 98.0793 187.365 99.3016 188.873 99.3016Z" fill="white"/>
    <path d="M188.873 110.701C190.281 110.701 191.423 109.559 191.423 108.151C191.423 106.742 190.281 105.601 188.873 105.601C187.465 105.601 186.323 106.742 186.323 108.151C186.323 109.559 187.465 110.701 188.873 110.701Z" fill="white"/>
    <path d="M188.873 123.479C190.944 123.479 192.623 121.801 192.623 119.729C192.623 117.658 190.944 115.979 188.873 115.979C186.802 115.979 185.123 117.658 185.123 119.729C185.123 121.801 186.802 123.479 188.873 123.479Z" fill="white"/>
    <path d="M188.873 134.058C190.392 134.058 191.623 132.827 191.623 131.308C191.623 129.79 190.392 128.558 188.873 128.558C187.354 128.558 186.123 129.79 186.123 131.308C186.123 132.827 187.354 134.058 188.873 134.058Z" fill="white"/>
    <path d="M188.873 145.237C190.171 145.237 191.223 144.185 191.223 142.887C191.223 141.59 190.171 140.537 188.873 140.537C187.575 140.537 186.523 141.59 186.523 142.887C186.523 144.185 187.575 145.237 188.873 145.237Z" fill="white"/>
    <path d="M188.873 155.746C189.58 155.746 190.153 155.173 190.153 154.466C190.153 153.759 189.58 153.186 188.873 153.186C188.166 153.186 187.593 153.759 187.593 154.466C187.593 155.173 188.166 155.746 188.873 155.746Z" fill="white"/>
    <path d="M188.873 169.835C190.966 169.835 192.663 168.138 192.663 166.045C192.663 163.952 190.966 162.255 188.873 162.255C186.78 162.255 185.083 163.952 185.083 166.045C185.083 168.138 186.78 169.835 188.873 169.835Z" fill="white"/>
    <path d="M188.873 178.984C189.624 178.984 190.233 178.375 190.233 177.624C190.233 176.873 189.624 176.264 188.873 176.264C188.122 176.264 187.513 176.873 187.513 177.624C187.513 178.375 188.122 178.984 188.873 178.984Z" fill="white"/>
    <path d="M188.873 192.263C190.563 192.263 191.933 190.893 191.933 189.203C191.933 187.513 190.563 186.143 188.873 186.143C187.183 186.143 185.813 187.513 185.813 189.203C185.813 190.893 187.183 192.263 188.873 192.263Z" fill="white"/>
    <path d="M188.873 202.532C189.84 202.532 190.623 201.749 190.623 200.782C190.623 199.816 189.84 199.032 188.873 199.032C187.907 199.032 187.123 199.816 187.123 200.782C187.123 201.749 187.907 202.532 188.873 202.532Z" fill="white"/>
    <path d="M188.873 214.171C189.873 214.171 190.683 213.361 190.683 212.361C190.683 211.361 189.873 210.551 188.873 210.551C187.874 210.551 187.063 211.361 187.063 212.361C187.063 213.361 187.874 214.171 188.873 214.171Z" fill="white"/>
    <path d="M200.452 7.87C202.623 7.87 204.382 6.11048 204.382 3.94C204.382 1.76952 202.623 0.00999999 200.452 0.00999999C198.282 0.00999999 196.522 1.76952 196.522 3.94C196.522 6.11048 198.282 7.87 200.452 7.87Z" fill="white"/>
    <path d="M200.452 18.9489C202.346 18.9489 203.882 17.4133 203.882 15.5189C203.882 13.6246 202.346 12.0889 200.452 12.0889C198.558 12.0889 197.022 13.6246 197.022 15.5189C197.022 17.4133 198.558 18.9489 200.452 18.9489Z" fill="white"/>
    <path d="M200.452 28.8279C201.408 28.8279 202.182 28.0533 202.182 27.0979C202.182 26.1424 201.408 25.3679 200.452 25.3679C199.497 25.3679 198.722 26.1424 198.722 27.0979C198.722 28.0533 199.497 28.8279 200.452 28.8279Z" fill="white"/>
    <path d="M200.452 42.5868C202.612 42.5868 204.362 40.8363 204.362 38.6768C204.362 36.5174 202.612 34.7668 200.452 34.7668C198.293 34.7668 196.542 36.5174 196.542 38.6768C196.542 40.8363 198.293 42.5868 200.452 42.5868Z" fill="white"/>
    <path d="M200.452 51.5358C201.159 51.5358 201.732 50.9627 201.732 50.2558C201.732 49.5489 201.159 48.9758 200.452 48.9758C199.745 48.9758 199.172 49.5489 199.172 50.2558C199.172 50.9627 199.745 51.5358 200.452 51.5358Z" fill="white"/>
    <path d="M200.452 64.7947C202.087 64.7947 203.412 63.4695 203.412 61.8347C203.412 60.2 202.087 58.8747 200.452 58.8747C198.817 58.8747 197.492 60.2 197.492 61.8347C197.492 63.4695 198.817 64.7947 200.452 64.7947Z" fill="white"/>
    <path d="M200.452 75.2337C201.457 75.2337 202.272 74.4188 202.272 73.4137C202.272 72.4085 201.457 71.5937 200.452 71.5937C199.447 71.5937 198.632 72.4085 198.632 73.4137C198.632 74.4188 199.447 75.2337 200.452 75.2337Z" fill="white"/>
    <path d="M200.452 87.7326C201.965 87.7326 203.192 86.5059 203.192 84.9926C203.192 83.4794 201.965 82.2526 200.452 82.2526C198.939 82.2526 197.712 83.4794 197.712 84.9926C197.712 86.5059 198.939 87.7326 200.452 87.7326Z" fill="white"/>
    <path d="M200.452 100.202C202.457 100.202 204.082 98.5764 204.082 96.5716C204.082 94.5668 202.457 92.9416 200.452 92.9416C198.447 92.9416 196.822 94.5668 196.822 96.5716C196.822 98.5764 198.447 100.202 200.452 100.202Z" fill="white"/>
    <path d="M200.452 110.921C201.982 110.921 203.222 109.68 203.222 108.151C203.222 106.621 201.982 105.381 200.452 105.381C198.922 105.381 197.682 106.621 197.682 108.151C197.682 109.68 198.922 110.921 200.452 110.921Z" fill="white"/>
    <path d="M200.452 121.129C201.225 121.129 201.852 120.503 201.852 119.729C201.852 118.956 201.225 118.329 200.452 118.329C199.679 118.329 199.052 118.956 199.052 119.729C199.052 120.503 199.679 121.129 200.452 121.129Z" fill="white"/>
    <path d="M200.452 132.618C201.176 132.618 201.762 132.032 201.762 131.308C201.762 130.585 201.176 129.998 200.452 129.998C199.729 129.998 199.142 130.585 199.142 131.308C199.142 132.032 199.729 132.618 200.452 132.618Z" fill="white"/>
    <path d="M200.452 144.627C201.413 144.627 202.192 143.848 202.192 142.887C202.192 141.926 201.413 141.147 200.452 141.147C199.491 141.147 198.712 141.926 198.712 142.887C198.712 143.848 199.491 144.627 200.452 144.627Z" fill="white"/>
    <path d="M200.452 156.676C201.673 156.676 202.662 155.687 202.662 154.466C202.662 153.246 201.673 152.256 200.452 152.256C199.232 152.256 198.242 153.246 198.242 154.466C198.242 155.687 199.232 156.676 200.452 156.676Z" fill="white"/>
    <path d="M200.452 167.405C201.203 167.405 201.812 166.796 201.812 166.045C201.812 165.294 201.203 164.685 200.452 164.685C199.701 164.685 199.092 165.294 199.092 166.045C199.092 166.796 199.701 167.405 200.452 167.405Z" fill="white"/>
    <path d="M200.452 181.054C202.346 181.054 203.882 179.519 203.882 177.624C203.882 175.73 202.346 174.194 200.452 174.194C198.558 174.194 197.022 175.73 197.022 177.624C197.022 179.519 198.558 181.054 200.452 181.054Z" fill="white"/>
    <path d="M200.452 191.713C201.838 191.713 202.962 190.589 202.962 189.203C202.962 187.817 201.838 186.693 200.452 186.693C199.066 186.693 197.942 187.817 197.942 189.203C197.942 190.589 199.066 191.713 200.452 191.713Z" fill="white"/>
    <path d="M200.452 203.312C201.849 203.312 202.982 202.179 202.982 200.782C202.982 199.385 201.849 198.252 200.452 198.252C199.055 198.252 197.922 199.385 197.922 200.782C197.922 202.179 199.055 203.312 200.452 203.312Z" fill="white"/>
    <path d="M200.452 215.811C202.357 215.811 203.902 214.266 203.902 212.361C203.902 210.456 202.357 208.911 200.452 208.911C198.547 208.911 197.002 210.456 197.002 212.361C197.002 214.266 198.547 215.811 200.452 215.811Z" fill="white"/>
    <path d="M212.031 6.83C213.627 6.83 214.921 5.5361 214.921 3.94C214.921 2.3439 213.627 1.05 212.031 1.05C210.435 1.05 209.141 2.3439 209.141 3.94C209.141 5.5361 210.435 6.83 212.031 6.83Z" fill="white"/>
    <path d="M212.031 16.7289C212.699 16.7289 213.241 16.1872 213.241 15.5189C213.241 14.8507 212.699 14.3089 212.031 14.3089C211.363 14.3089 210.821 14.8507 210.821 15.5189C210.821 16.1872 211.363 16.7289 212.031 16.7289Z" fill="white"/>
    <path d="M212.031 28.5079C212.81 28.5079 213.441 27.8766 213.441 27.0979C213.441 26.3192 212.81 25.6879 212.031 25.6879C211.252 25.6879 210.621 26.3192 210.621 27.0979C210.621 27.8766 211.252 28.5079 212.031 28.5079Z" fill="white"/>
    <path d="M212.031 39.7368C212.616 39.7368 213.091 39.2623 213.091 38.6768C213.091 38.0914 212.616 37.6168 212.031 37.6168C211.446 37.6168 210.971 38.0914 210.971 38.6768C210.971 39.2623 211.446 39.7368 212.031 39.7368Z" fill="white"/>
    <path d="M212.031 53.2758C213.699 53.2758 215.051 51.9237 215.051 50.2558C215.051 48.5879 213.699 47.2358 212.031 47.2358C210.363 47.2358 209.011 48.5879 209.011 50.2558C209.011 51.9237 210.363 53.2758 212.031 53.2758Z" fill="white"/>
    <path d="M212.031 63.7547C213.091 63.7547 213.951 62.8951 213.951 61.8347C213.951 60.7744 213.091 59.9147 212.031 59.9147C210.971 59.9147 210.111 60.7744 210.111 61.8347C210.111 62.8951 210.971 63.7547 212.031 63.7547Z" fill="white"/>
    <path d="M212.031 75.8337C213.368 75.8337 214.451 74.7502 214.451 73.4137C214.451 72.0772 213.368 70.9937 212.031 70.9937C210.695 70.9937 209.611 72.0772 209.611 73.4137C209.611 74.7502 210.695 75.8337 212.031 75.8337Z" fill="white"/>
    <path d="M212.031 87.2926C213.301 87.2926 214.331 86.2629 214.331 84.9926C214.331 83.7224 213.301 82.6926 212.031 82.6926C210.761 82.6926 209.731 83.7224 209.731 84.9926C209.731 86.2629 210.761 87.2926 212.031 87.2926Z" fill="white"/>
    <path d="M212.031 100.042C213.947 100.042 215.501 98.488 215.501 96.5716C215.501 94.6552 213.947 93.1016 212.031 93.1016C210.115 93.1016 208.561 94.6552 208.561 96.5716C208.561 98.488 210.115 100.042 212.031 100.042Z" fill="white"/>
    <path d="M212.031 110.461C213.307 110.461 214.341 109.426 214.341 108.151C214.341 106.875 213.307 105.841 212.031 105.841C210.755 105.841 209.721 106.875 209.721 108.151C209.721 109.426 210.755 110.461 212.031 110.461Z" fill="white"/>
    <path d="M212.031 121.489C213.003 121.489 213.791 120.701 213.791 119.729C213.791 118.757 213.003 117.969 212.031 117.969C211.059 117.969 210.271 118.757 210.271 119.729C210.271 120.701 211.059 121.489 212.031 121.489Z" fill="white"/>
    <path d="M212.031 135.128C214.141 135.128 215.851 133.418 215.851 131.308C215.851 129.199 214.141 127.488 212.031 127.488C209.921 127.488 208.211 129.199 208.211 131.308C208.211 133.418 209.921 135.128 212.031 135.128Z" fill="white"/>
    <path d="M212.031 145.877C213.682 145.877 215.021 144.539 215.021 142.887C215.021 141.236 213.682 139.897 212.031 139.897C210.38 139.897 209.041 141.236 209.041 142.887C209.041 144.539 210.38 145.877 212.031 145.877Z" fill="white"/>
    <path d="M212.031 156.466C213.136 156.466 214.031 155.571 214.031 154.466C214.031 153.362 213.136 152.466 212.031 152.466C210.926 152.466 210.031 153.362 210.031 154.466C210.031 155.571 210.926 156.466 212.031 156.466Z" fill="white"/>
    <path d="M212.031 169.065C213.699 169.065 215.051 167.713 215.051 166.045C215.051 164.377 213.699 163.025 212.031 163.025C210.363 163.025 209.011 164.377 209.011 166.045C209.011 167.713 210.363 169.065 212.031 169.065Z" fill="white"/>
    <path d="M212.031 179.264C212.937 179.264 213.671 178.53 213.671 177.624C213.671 176.718 212.937 175.984 212.031 175.984C211.125 175.984 210.391 176.718 210.391 177.624C210.391 178.53 211.125 179.264 212.031 179.264Z" fill="white"/>
    <path d="M212.031 192.513C213.859 192.513 215.341 191.031 215.341 189.203C215.341 187.375 213.859 185.893 212.031 185.893C210.203 185.893 208.721 187.375 208.721 189.203C208.721 191.031 210.203 192.513 212.031 192.513Z" fill="white"/>
    <path d="M212.031 202.192C212.81 202.192 213.441 201.561 213.441 200.782C213.441 200.003 212.81 199.372 212.031 199.372C211.252 199.372 210.621 200.003 210.621 200.782C210.621 201.561 211.252 202.192 212.031 202.192Z" fill="white"/>
    <path d="M212.031 213.701C212.771 213.701 213.371 213.101 213.371 212.361C213.371 211.621 212.771 211.021 212.031 211.021C211.291 211.021 210.691 211.621 210.691 212.361C210.691 213.101 211.291 213.701 212.031 213.701Z" fill="white"/>
</svg>
