<svg width="38" height="30" viewBox="0 0 38 30" fill="none" xmlns="http://www.w3.org/2000/svg">
    <path d="M37.1 8.90469C36.818 8.65882 36.4693 8.50231 36.0982 8.45501C35.7271 8.40772 35.3503 8.47178 35.0156 8.63906L27.1703 12.5453L20.6203 1.66562C20.4519 1.38644 20.2143 1.15551 19.9304 0.9952C19.6465 0.834893 19.326 0.750656 19 0.750656C18.674 0.750656 18.3535 0.834893 18.0696 0.9952C17.7857 1.15551 17.5481 1.38644 17.3797 1.66562L10.8297 12.55L2.98749 8.64375C2.65365 8.47795 2.27828 8.41445 1.90848 8.46121C1.53868 8.50797 1.19092 8.66291 0.908858 8.90659C0.626793 9.15026 0.422982 9.47182 0.323001 9.83091C0.22302 10.19 0.231323 10.5706 0.346869 10.925L6.12812 28.6375C6.18624 28.8154 6.2836 28.9781 6.41298 29.1133C6.54237 29.2486 6.70049 29.3531 6.87567 29.4191C7.05085 29.4851 7.23861 29.5109 7.4251 29.4946C7.61159 29.4783 7.79203 29.4204 7.95312 29.325C7.99218 29.3016 11.9875 27 19 27C26.0125 27 30.0078 29.3016 30.0437 29.3234C30.2049 29.4197 30.3856 29.4785 30.5726 29.4953C30.7596 29.5122 30.9479 29.4867 31.1237 29.4208C31.2994 29.3549 31.4581 29.2503 31.5879 29.1147C31.7177 28.9791 31.8153 28.816 31.8734 28.6375L37.6547 10.9297C37.7735 10.5752 37.7843 10.1934 37.6855 9.83277C37.5867 9.47218 37.3829 9.14911 37.1 8.90469ZM29.9375 26.5047C28.0625 25.7094 24.325 24.5 19 24.5C13.675 24.5 9.93749 25.7094 8.06249 26.5047L3.17343 11.5312L10.2156 15.0422C10.6419 15.2524 11.1314 15.2954 11.5878 15.1626C12.0441 15.0299 12.4342 14.731 12.6812 14.325L19 3.82187L25.3187 14.3219C25.566 14.7273 25.9558 15.0256 26.4117 15.1583C26.8676 15.291 27.3566 15.2484 27.7828 15.0391L34.8266 11.5312L29.9375 26.5047ZM26.4797 21.5047C26.4287 21.7939 26.2775 22.0558 26.0526 22.2447C25.8278 22.4335 25.5436 22.5372 25.25 22.5375C25.1767 22.5374 25.1035 22.5311 25.0312 22.5187C21.0386 21.8333 16.9583 21.8333 12.9656 22.5187C12.6391 22.5764 12.303 22.5019 12.0314 22.3117C11.7597 22.1215 11.5748 21.8312 11.5172 21.5047C11.4596 21.1781 11.5341 20.8421 11.7242 20.5704C11.9144 20.2988 12.2047 20.1138 12.5312 20.0562C16.8113 19.3208 21.1855 19.3208 25.4656 20.0562C25.7915 20.1135 26.0814 20.2976 26.2718 20.5682C26.4622 20.8388 26.5375 21.1739 26.4812 21.5L26.4797 21.5047Z"
          fill="var(--text)"/>
</svg>
