<svg width="33" height="32" viewBox="0 0 33 32" fill="none" xmlns="http://www.w3.org/2000/svg">
    <path d="M32.4908 19.2234C32.3304 19.0628 32.1294 18.9488 31.9091 18.8937C31.6889 18.8387 31.4579 18.8446 31.2408 18.9109C28.8573 19.6315 26.323 19.6919 23.9079 19.0858C21.4928 18.4796 19.2873 17.2295 17.5266 15.4688C15.7659 13.7081 14.5159 11.5027 13.9097 9.0876C13.3036 6.67249 13.364 4.13818 14.0845 1.75469C14.1514 1.53751 14.1578 1.3062 14.1031 1.08565C14.0483 0.865098 13.9345 0.663645 13.7738 0.502957C13.6131 0.342269 13.4116 0.228426 13.1911 0.17367C12.9705 0.118914 12.7392 0.125318 12.522 0.192192C9.22676 1.20164 6.33381 3.22468 4.25484 5.97344C2.43674 8.38728 1.32774 11.2603 1.05244 14.2696C0.777145 17.279 1.34646 20.3055 2.69642 23.0092C4.04638 25.7129 6.1235 27.9865 8.69442 29.5747C11.2653 31.163 14.2282 32.0028 17.2502 32C20.7757 32.0109 24.2074 30.8648 27.0189 28.7375C29.7677 26.6585 31.7907 23.7656 32.8002 20.4703C32.8663 20.2539 32.8724 20.0237 32.8179 19.8041C32.7634 19.5845 32.6504 19.3838 32.4908 19.2234ZM25.5158 26.7406C22.8682 28.7348 19.5894 29.7055 16.2829 29.4739C12.9764 29.2424 9.86485 27.8243 7.521 25.4806C5.17714 23.137 3.75877 20.0255 3.52698 16.7191C3.29519 13.4126 4.26559 10.1337 6.25953 7.48594C7.5586 5.77041 9.23807 4.37977 11.1658 3.42344C11.056 4.19411 11.0006 4.97156 11.0002 5.75C11.0047 10.0584 12.7182 14.189 15.7647 17.2355C18.8112 20.2819 22.9418 21.9955 27.2502 22C28.0302 21.9998 28.8092 21.9444 29.5814 21.8344C28.6242 23.7624 27.2324 25.4419 25.5158 26.7406Z"
          fill="var(--text)"/>
</svg>
