<svg width="27" height="27" viewBox="0 0 27 27" fill="none" xmlns="http://www.w3.org/2000/svg">
    <path d="M18.6758 4.32075C18.6758 4.05554 18.7812 3.80118 18.9687 3.61365C19.1562 3.42611 19.4106 3.32075 19.6758 3.32075H25.6758C25.941 3.32075 26.1954 3.42611 26.3829 3.61365C26.5705 3.80118 26.6758 4.05554 26.6758 4.32075C26.6758 4.58597 26.5705 4.84032 26.3829 5.02786C26.1954 5.2154 25.941 5.32075 25.6758 5.32075H19.6758C19.4106 5.32075 19.1562 5.2154 18.9687 5.02786C18.7812 4.84032 18.6758 4.58597 18.6758 4.32075ZM26.4958 11.1558C26.9527 13.8715 26.5346 16.6621 25.3021 19.1247C24.0695 21.5873 22.0863 23.5945 19.6386 24.8565C17.1909 26.1185 14.4055 26.5699 11.6845 26.1457C8.96351 25.7214 6.44777 24.4433 4.5005 22.4961C2.55323 20.5488 1.27519 18.0331 0.85091 15.3121C0.426632 12.5911 0.87807 9.80568 2.14004 7.358C3.40202 4.91032 5.40922 2.92702 7.87186 1.69447C10.3345 0.461922 13.1251 0.0438978 15.8408 0.500754C16.1004 0.54666 16.3314 0.693207 16.4834 0.908517C16.6355 1.12383 16.6965 1.39048 16.653 1.65048C16.6095 1.91048 16.4651 2.14278 16.2512 2.29687C16.0373 2.45095 15.7712 2.51434 15.5108 2.47325C13.9335 2.20791 12.3173 2.28947 10.7747 2.71226C9.23205 3.13505 7.8001 3.88891 6.57846 4.92138C5.35683 5.95385 4.37484 7.24012 3.70086 8.69068C3.02688 10.1412 2.67708 11.7213 2.67581 13.3208C2.67344 16.0135 3.66313 18.6127 5.45581 20.622C6.5711 19.0058 8.13934 17.7555 9.96332 17.0283C8.98355 16.2566 8.2686 15.1987 7.9179 14.0019C7.56721 12.805 7.59819 11.5286 8.00655 10.3502C8.4149 9.17175 9.18033 8.14986 10.1964 7.42662C11.2125 6.70337 12.4286 6.31473 13.6758 6.31473C14.923 6.31473 16.1392 6.70337 17.1552 7.42662C18.1713 8.14986 18.9367 9.17175 19.3451 10.3502C19.7534 11.5286 19.7844 12.805 19.4337 14.0019C19.083 15.1987 18.3681 16.2566 17.3883 17.0283C19.2123 17.7555 20.7805 19.0058 21.8958 20.622C23.6885 18.6127 24.6782 16.0135 24.6758 13.3208C24.6759 12.7059 24.6249 12.0921 24.5233 11.4858C24.5003 11.3557 24.5033 11.2223 24.5321 11.0934C24.561 10.9645 24.615 10.8426 24.6913 10.7347C24.7675 10.6268 24.8643 10.535 24.9762 10.4648C25.0881 10.3945 25.2127 10.3471 25.343 10.3253C25.4733 10.3035 25.6066 10.3078 25.7353 10.3378C25.8639 10.3678 25.9854 10.423 26.0925 10.5002C26.1997 10.5774 26.2905 10.6751 26.3598 10.7876C26.429 10.9002 26.4752 11.0253 26.4958 11.1558ZM13.6758 16.3208C14.4669 16.3208 15.2403 16.0862 15.8981 15.6466C16.5559 15.2071 17.0686 14.5824 17.3713 13.8515C17.6741 13.1206 17.7533 12.3163 17.599 11.5404C17.4446 10.7645 17.0637 10.0517 16.5042 9.49233C15.9448 8.93292 15.2321 8.55195 14.4562 8.39761C13.6803 8.24327 12.876 8.32249 12.1451 8.62524C11.4142 8.92799 10.7895 9.44068 10.3499 10.0985C9.91041 10.7563 9.67581 11.5296 9.67581 12.3208C9.67581 13.3816 10.0972 14.399 10.8474 15.1492C11.5975 15.8993 12.6149 16.3208 13.6758 16.3208ZM13.6758 24.3208C16.1175 24.3232 18.4899 23.5092 20.4158 22.0083C19.6924 20.8769 18.6958 19.9458 17.5179 19.3008C16.34 18.6559 15.0187 18.3178 13.6758 18.3178C12.3329 18.3178 11.0116 18.6559 9.83372 19.3008C8.65582 19.9458 7.65923 20.8769 6.93581 22.0083C8.86168 23.5092 11.2341 24.3232 13.6758 24.3208Z"
          fill="var(--accent)"/>
</svg>
