<svg width="36" height="34" viewBox="0 0 36 34" fill="none" xmlns="http://www.w3.org/2000/svg">
    <path d="M34.25 30.75H30.5V3.25C30.5 2.58696 30.2366 1.95107 29.7678 1.48223C29.2989 1.01339 28.663 0.75 28 0.75H8C7.33696 0.75 6.70107 1.01339 6.23223 1.48223C5.76339 1.95107 5.5 2.58696 5.5 3.25V30.75H1.75C1.41848 30.75 1.10054 30.8817 0.866116 31.1161C0.631696 31.3505 0.5 31.6685 0.5 32C0.5 32.3315 0.631696 32.6495 0.866116 32.8839C1.10054 33.1183 1.41848 33.25 1.75 33.25H34.25C34.5815 33.25 34.8995 33.1183 35.1339 32.8839C35.3683 32.6495 35.5 32.3315 35.5 32C35.5 31.6685 35.3683 31.3505 35.1339 31.1161C34.8995 30.8817 34.5815 30.75 34.25 30.75ZM28 3.25V30.75H25.5V3.25H28ZM8 3.25H23V30.75H8V3.25ZM20.5 17.625C20.5 17.9958 20.39 18.3584 20.184 18.6667C19.978 18.975 19.6851 19.2154 19.3425 19.3573C18.9999 19.4992 18.6229 19.5363 18.2592 19.464C17.8955 19.3916 17.5614 19.213 17.2992 18.9508C17.037 18.6886 16.8584 18.3545 16.786 17.9908C16.7137 17.6271 16.7508 17.2501 16.8927 16.9075C17.0346 16.5649 17.275 16.272 17.5833 16.066C17.8916 15.86 18.2542 15.75 18.625 15.75C19.1223 15.75 19.5992 15.9475 19.9508 16.2992C20.3025 16.6508 20.5 17.1277 20.5 17.625Z"
          fill="var(--text)"/>
</svg>
