<svg width="1507" height="294" viewBox="0 0 1507 294" fill="none" xmlns="http://www.w3.org/2000/svg" preserveAspectRatio="xMidYMin slice">
    <path fill-rule="evenodd" clip-rule="evenodd"
          d="M0 294C0 294 6.65882 287.668 8 284C32.5 217 113 121.817 136 132.298C158 142.779 181 121.817 204 88.878C227 56.6873 250 14.0159 273 2.78662C296 -7.69407 318 14.0159 341 24.4966C364 34.9773 387 34.9773 410 67.9166C433 100.107 456 164.489 478 186.199C501 207.909 524 186.199 547 180.958C570 175.718 593 186.199 616 164.489C638 142.779 661 88.878 684 61.9276C707 34.9773 730 34.9773 753 56.6873C776 78.3973 798 121.817 821 164.489C844 207.909 867 250.58 890 229.619C913 207.909 936 121.817 958 73.157C981 24.4966 1004 14.0159 1027 19.2563C1050 24.4966 1073 46.2066 1096 83.6376C1118 121.817 1141 175.718 1164 169.729C1187 164.489 1210 100.107 1233 67.9166C1256 34.9773 1278 34.9773 1301 29.737C1324 24.4966 1347 14.0159 1370 24.4966C1393 34.9773 1416 67.9166 1438 78.3973C1495.72 138.503 1480.12 180.17 1507 294H1496C1484 294 1461 294 1438 294C1416 294 1393 294 1370 294C1347 294 1324 294 1301 294C1278 294 1256 294 1233 294C1210 294 1187 294 1164 294C1141 294 1118 294 1096 294C1073 294 1050 294 1027 294C1004 294 981 294 958 294C936 294 913 294 890 294C867 294 844 294 821 294C798 294 776 294 753 294C730 294 707 294 684 294C661 294 638 294 616 294C593 294 570 294 547 294C524 294 501 294 478 294C456 294 433 294 410 294C387 294 364 294 341 294C318 294 296 294 273 294C250 294 227 294 204 294C181 294 158 294 136 294C113 294 31 294 19 294H0Z"
          fill="var(--second)" fill-opacity="0.9"/>
</svg>
