<svg width="1585" height="326" viewBox="0 0 1585 326" fill="none" xmlns="http://www.w3.org/2000/svg" preserveAspectRatio="xMidYMin slice">
    <path fill-rule="evenodd" clip-rule="evenodd"
          d="M105 159.396C108.323 158.252 114 159.396 114 159.396C123 159.396 141 159.396 158 181.764C176 204.132 194 248.097 212 270.465C229 292.833 247 292.833 265 248.097C283 204.132 301 114.66 318 81.4931C336 48.3265 354 70.6946 372 109.26C389 148.597 407 204.132 425 204.132C443 204.132 461 148.597 478 142.427C496 137.028 514 181.764 532 170.194C549 159.396 567 93.0628 585 81.4931C603 70.6947 621 114.66 638 153.997C656 192.562 674 225.729 692 237.299C709 248.097 727 237.299 745 231.9C763 225.729 781 225.729 798 197.962C816 170.194 834 114.66 852 86.8923C869 59.1249 887 59.1249 905 70.6946C923 81.4931 941 103.861 958 93.0628C976 81.4931 994 37.5281 1012 15.1599C1029 -7.20819 1047 -7.2082 1065 31.3576C1083 70.6946 1101 148.597 1118 197.962C1136 248.097 1154 270.465 1172 242.698C1189 214.931 1207 137.028 1225 109.26C1243 81.4931 1261 103.861 1278 126.229C1296 148.597 1314 170.194 1332 181.764C1349 192.562 1367 192.562 1385 192.562C1403 192.562 1421 192.562 1438 204.132C1456 214.931 1474 237.299 1492 248.097C1509 259.667 1527 259.667 1536 259.667C1559 263.5 1580 298.5 1585 326H1536C1527 326 1509 326 1492 326C1474 326 1456 326 1438 326C1421 326 1403 326 1385 326C1367 326 1349 326 1332 326C1314 326 1296 326 1278 326C1261 326 1243 326 1225 326C1207 326 1189 326 1172 326C1154 326 1136 326 1118 326C1101 326 1083 326 1065 326C1047 326 1029 326 1012 326C994 326 976 326 958 326C941 326 923 326 905 326C887 326 869 326 852 326C834 326 816 326 798 326C781 326 763 326 745 326C727 326 709 326 692 326C674 326 656 326 638 326C621 326 603 326 585 326C567 326 549 326 532 326C514 326 496 326 478 326C461 326 443 326 425 326C407 326 389 326 372 326C354 326 336 326 318 326C301 326 283 326 265 326C247 326 229 326 212 326C194 326 176 326 158 326C141 326 123 326 114 326H0C0 326 33.5 184 105 159.396Z"
          fill="var(--accent)" fill-opacity="0.9"/>
</svg>
