<svg width="40" height="40" viewBox="0 0 40 40" fill="none" xmlns="http://www.w3.org/2000/svg">
    <path d="M18.4615 3.07692V1.53846C18.4615 1.13044 18.6236 0.739122 18.9121 0.450605C19.2007 0.162087 19.592 0 20 0C20.408 0 20.7993 0.162087 21.0879 0.450605C21.3764 0.739122 21.5385 1.13044 21.5385 1.53846V3.07692C21.5385 3.48495 21.3764 3.87626 21.0879 4.16478C20.7993 4.4533 20.408 4.61538 20 4.61538C19.592 4.61538 19.2007 4.4533 18.9121 4.16478C18.6236 3.87626 18.4615 3.48495 18.4615 3.07692ZM32.3077 20C32.3077 22.4342 31.5859 24.8138 30.2335 26.8378C28.8811 28.8618 26.9589 30.4393 24.71 31.3708C22.461 32.3024 19.9863 32.5461 17.5989 32.0712C15.2114 31.5963 13.0184 30.4241 11.2971 28.7029C9.57589 26.9816 8.40369 24.7886 7.9288 22.4011C7.4539 20.0137 7.69764 17.539 8.62918 15.2901C9.56072 13.0411 11.1382 11.1189 13.1622 9.76653C15.1862 8.41414 17.5658 7.69231 20 7.69231C23.2631 7.69587 26.3916 8.99372 28.6989 11.3011C31.0063 13.6085 32.3041 16.7369 32.3077 20ZM29.2308 20C29.2308 18.1743 28.6894 16.3897 27.6751 14.8717C26.6608 13.3537 25.2192 12.1705 23.5325 11.4719C21.8458 10.7732 19.9898 10.5904 18.1992 10.9466C16.4086 11.3028 14.7638 12.1819 13.4729 13.4729C12.1819 14.7638 11.3028 16.4086 10.9466 18.1992C10.5904 19.9898 10.7732 21.8458 11.4719 23.5325C12.1705 25.2192 13.3537 26.6608 14.8717 27.6751C16.3897 28.6894 18.1743 29.2308 20 29.2308C22.4474 29.2282 24.7938 28.2549 26.5243 26.5243C28.2549 24.7938 29.2282 22.4474 29.2308 20ZM6.60385 8.78077C6.89252 9.06945 7.28406 9.23162 7.69231 9.23162C8.10056 9.23162 8.49209 9.06945 8.78077 8.78077C9.06945 8.49209 9.23162 8.10056 9.23162 7.69231C9.23162 7.28406 9.06945 6.89252 8.78077 6.60385L7.24231 5.06538C6.95363 4.77671 6.5621 4.61453 6.15385 4.61453C5.74559 4.61453 5.35406 4.77671 5.06538 5.06538C4.77671 5.35406 4.61453 5.74559 4.61453 6.15385C4.61453 6.5621 4.77671 6.95363 5.06538 7.24231L6.60385 8.78077ZM6.60385 31.2192L5.06538 32.7577C4.77671 33.0464 4.61453 33.4379 4.61453 33.8462C4.61453 34.2544 4.77671 34.6459 5.06538 34.9346C5.35406 35.2233 5.74559 35.3855 6.15385 35.3855C6.5621 35.3855 6.95363 35.2233 7.24231 34.9346L8.78077 33.3962C8.92371 33.2532 9.03709 33.0835 9.11445 32.8968C9.19181 32.71 9.23162 32.5098 9.23162 32.3077C9.23162 32.1055 9.19181 31.9054 9.11445 31.7186C9.03709 31.5319 8.92371 31.3622 8.78077 31.2192C8.63783 31.0763 8.46814 30.9629 8.28138 30.8856C8.09462 30.8082 7.89445 30.7684 7.69231 30.7684C7.49016 30.7684 7.28999 30.8082 7.10324 30.8856C6.91648 30.9629 6.74679 31.0763 6.60385 31.2192ZM32.3077 9.23077C32.5098 9.23093 32.7099 9.19127 32.8967 9.11406C33.0835 9.03684 33.2532 8.92359 33.3962 8.78077L34.9346 7.24231C35.2233 6.95363 35.3855 6.5621 35.3855 6.15385C35.3855 5.74559 35.2233 5.35406 34.9346 5.06538C34.6459 4.77671 34.2544 4.61453 33.8462 4.61453C33.4379 4.61453 33.0464 4.77671 32.7577 5.06538L31.2192 6.60385C31.0038 6.81901 30.8571 7.09324 30.7976 7.39184C30.7382 7.69043 30.7687 7.99995 30.8852 8.28122C31.0017 8.56248 31.1991 8.80285 31.4523 8.97188C31.7056 9.14091 32.0032 9.23101 32.3077 9.23077ZM33.3962 31.2192C33.1075 30.9306 32.7159 30.7684 32.3077 30.7684C31.8994 30.7684 31.5079 30.9306 31.2192 31.2192C30.9306 31.5079 30.7684 31.8994 30.7684 32.3077C30.7684 32.7159 30.9306 33.1075 31.2192 33.3962L32.7577 34.9346C32.9006 35.0776 33.0703 35.1909 33.2571 35.2683C33.4438 35.3457 33.644 35.3855 33.8462 35.3855C34.0483 35.3855 34.2485 35.3457 34.4352 35.2683C34.622 35.1909 34.7917 35.0776 34.9346 34.9346C35.0776 34.7917 35.1909 34.622 35.2683 34.4352C35.3457 34.2485 35.3855 34.0483 35.3855 33.8462C35.3855 33.644 35.3457 33.4438 35.2683 33.2571C35.1909 33.0703 35.0776 32.9006 34.9346 32.7577L33.3962 31.2192ZM3.07692 18.4615H1.53846C1.13044 18.4615 0.739122 18.6236 0.450605 18.9121C0.162087 19.2007 0 19.592 0 20C0 20.408 0.162087 20.7993 0.450605 21.0879C0.739122 21.3764 1.13044 21.5385 1.53846 21.5385H3.07692C3.48495 21.5385 3.87626 21.3764 4.16478 21.0879C4.4533 20.7993 4.61538 20.408 4.61538 20C4.61538 19.592 4.4533 19.2007 4.16478 18.9121C3.87626 18.6236 3.48495 18.4615 3.07692 18.4615ZM20 35.3846C19.592 35.3846 19.2007 35.5467 18.9121 35.8352C18.6236 36.1237 18.4615 36.5151 18.4615 36.9231V38.4615C18.4615 38.8696 18.6236 39.2609 18.9121 39.5494C19.2007 39.8379 19.592 40 20 40C20.408 40 20.7993 39.8379 21.0879 39.5494C21.3764 39.2609 21.5385 38.8696 21.5385 38.4615V36.9231C21.5385 36.5151 21.3764 36.1237 21.0879 35.8352C20.7993 35.5467 20.408 35.3846 20 35.3846ZM38.4615 18.4615H36.9231C36.5151 18.4615 36.1237 18.6236 35.8352 18.9121C35.5467 19.2007 35.3846 19.592 35.3846 20C35.3846 20.408 35.5467 20.7993 35.8352 21.0879C36.1237 21.3764 36.5151 21.5385 36.9231 21.5385H38.4615C38.8696 21.5385 39.2609 21.3764 39.5494 21.0879C39.8379 20.7993 40 20.408 40 20C40 19.592 39.8379 19.2007 39.5494 18.9121C39.2609 18.6236 38.8696 18.4615 38.4615 18.4615Z"
          fill="var(--text)"/>
</svg>
