<svg width="24" height="24" viewBox="0 0 24 24" fill="none" xmlns="http://www.w3.org/2000/svg">
    <path d="M23.75 2V5.5C23.75 5.69891 23.671 5.88968 23.5303 6.03033C23.3897 6.17098 23.1989 6.25 23 6.25C22.8011 6.25 22.6103 6.17098 22.4697 6.03033C22.329 5.88968 22.25 5.69891 22.25 5.5V2C22.25 1.9337 22.2237 1.87011 22.1768 1.82322C22.1299 1.77634 22.0663 1.75 22 1.75H18.5C18.3011 1.75 18.1103 1.67098 17.9697 1.53033C17.829 1.38968 17.75 1.19891 17.75 1C17.75 0.801088 17.829 0.610322 17.9697 0.46967C18.1103 0.329018 18.3011 0.25 18.5 0.25H22C22.4641 0.25 22.9092 0.434375 23.2374 0.762563C23.5656 1.09075 23.75 1.53587 23.75 2ZM23 17.75C22.8011 17.75 22.6103 17.829 22.4697 17.9697C22.329 18.1103 22.25 18.3011 22.25 18.5V22C22.25 22.0663 22.2237 22.1299 22.1768 22.1768C22.1299 22.2237 22.0663 22.25 22 22.25H18.5C18.3011 22.25 18.1103 22.329 17.9697 22.4697C17.829 22.6103 17.75 22.8011 17.75 23C17.75 23.1989 17.829 23.3897 17.9697 23.5303C18.1103 23.671 18.3011 23.75 18.5 23.75H22C22.4641 23.75 22.9092 23.5656 23.2374 23.2374C23.5656 22.9092 23.75 22.4641 23.75 22V18.5C23.75 18.3011 23.671 18.1103 23.5303 17.9697C23.3897 17.829 23.1989 17.75 23 17.75ZM5.5 22.25H2C1.9337 22.25 1.87011 22.2237 1.82322 22.1768C1.77634 22.1299 1.75 22.0663 1.75 22V18.5C1.75 18.3011 1.67098 18.1103 1.53033 17.9697C1.38968 17.829 1.19891 17.75 1 17.75C0.801088 17.75 0.610322 17.829 0.46967 17.9697C0.329018 18.1103 0.25 18.3011 0.25 18.5V22C0.25 22.4641 0.434375 22.9092 0.762563 23.2374C1.09075 23.5656 1.53587 23.75 2 23.75H5.5C5.69891 23.75 5.88968 23.671 6.03033 23.5303C6.17098 23.3897 6.25 23.1989 6.25 23C6.25 22.8011 6.17098 22.6103 6.03033 22.4697C5.88968 22.329 5.69891 22.25 5.5 22.25ZM1 6.25C1.19891 6.25 1.38968 6.17098 1.53033 6.03033C1.67098 5.88968 1.75 5.69891 1.75 5.5V2C1.75 1.9337 1.77634 1.87011 1.82322 1.82322C1.87011 1.77634 1.9337 1.75 2 1.75H5.5C5.69891 1.75 5.88968 1.67098 6.03033 1.53033C6.17098 1.38968 6.25 1.19891 6.25 1C6.25 0.801088 6.17098 0.610322 6.03033 0.46967C5.88968 0.329018 5.69891 0.25 5.5 0.25H2C1.53587 0.25 1.09075 0.434375 0.762563 0.762563C0.434375 1.09075 0.25 1.53587 0.25 2V5.5C0.25 5.69891 0.329018 5.88968 0.46967 6.03033C0.610322 6.17098 0.801088 6.25 1 6.25ZM18 17.75C17.8836 17.75 17.7687 17.7229 17.6646 17.6708C17.5604 17.6187 17.4699 17.5431 17.4 17.45C16.7713 16.6117 15.956 15.9313 15.0187 15.4626C14.0814 14.994 13.0479 14.75 12 14.75C10.9521 14.75 9.91858 14.994 8.98131 15.4626C8.04403 15.9313 7.22874 16.6117 6.6 17.45C6.54091 17.5288 6.46687 17.5952 6.38212 17.6454C6.29737 17.6955 6.20357 17.7285 6.10607 17.7425C6.00856 17.7564 5.90927 17.751 5.81386 17.7265C5.71845 17.7021 5.62879 17.6591 5.55 17.6C5.47121 17.5409 5.40482 17.4669 5.35464 17.3821C5.30446 17.2974 5.27147 17.2036 5.25754 17.1061C5.24361 17.0086 5.24902 16.9093 5.27347 16.8139C5.29791 16.7185 5.3409 16.6288 5.4 16.55C6.34376 15.2849 7.63232 14.3188 9.11125 13.7675C8.32316 13.1637 7.74405 12.3282 7.45532 11.3783C7.16659 10.4284 7.18274 9.41197 7.5015 8.47175C7.82027 7.53152 8.42562 6.71481 9.2325 6.13638C10.0394 5.55795 11.0072 5.24687 12 5.24687C12.9928 5.24687 13.9606 5.55795 14.7675 6.13638C15.5744 6.71481 16.1797 7.53152 16.4985 8.47175C16.8173 9.41197 16.8334 10.4284 16.5447 11.3783C16.2559 12.3282 15.6768 13.1637 14.8888 13.7675C16.3677 14.3188 17.6562 15.2849 18.6 16.55C18.6836 16.6614 18.7345 16.7939 18.747 16.9326C18.7595 17.0714 18.7331 17.2108 18.6708 17.3354C18.6085 17.46 18.5128 17.5648 18.3943 17.638C18.2758 17.7112 18.1393 17.75 18 17.75ZM12 13.25C12.6428 13.25 13.2711 13.0594 13.8056 12.7023C14.3401 12.3452 14.7566 11.8376 15.0026 11.2437C15.2486 10.6499 15.313 9.99639 15.1876 9.36596C15.0621 8.73552 14.7526 8.15642 14.2981 7.7019C13.8436 7.24738 13.2645 6.93785 12.634 6.81245C12.0036 6.68705 11.3501 6.75141 10.7563 6.99739C10.1624 7.24338 9.65484 7.65994 9.29772 8.1944C8.94061 8.72886 8.75 9.35721 8.75 10C8.75 10.862 9.09241 11.6886 9.7019 12.2981C10.3114 12.9076 11.138 13.25 12 13.25Z"
          fill="var(--text)"/>
</svg>
