<svg width="25" height="24" viewBox="0 0 25 24" fill="none" xmlns="http://www.w3.org/2000/svg">
    <path d="M21.2317 19.5548C21.3722 19.6955 21.4511 19.8861 21.4511 20.0848C21.4511 20.2836 21.3722 20.4742 21.2317 20.6148C21.1005 20.7461 17.9517 23.8348 12.7017 23.8348C7.74422 23.8348 4.25297 20.6161 2.45172 18.4273V22.0848C2.45172 22.2838 2.3727 22.4745 2.23205 22.6152C2.0914 22.7558 1.90063 22.8348 1.70172 22.8348C1.50281 22.8348 1.31204 22.7558 1.17139 22.6152C1.03074 22.4745 0.951721 22.2838 0.951721 22.0848V16.0848C0.951721 15.8859 1.03074 15.6952 1.17139 15.5545C1.31204 15.4139 1.50281 15.3348 1.70172 15.3348H7.70172C7.90063 15.3348 8.0914 15.4139 8.23205 15.5545C8.3727 15.6952 8.45172 15.8859 8.45172 16.0848C8.45172 16.2838 8.3727 16.4745 8.23205 16.6152C8.0914 16.7558 7.90063 16.8348 7.70172 16.8348H3.12047C4.54672 18.7236 7.89922 22.3348 12.7017 22.3348C17.338 22.3348 20.1442 19.5848 20.1717 19.5548C20.3123 19.4144 20.503 19.3355 20.7017 19.3355C20.9005 19.3355 21.0911 19.4144 21.2317 19.5548ZM23.7017 1.33484C23.5028 1.33484 23.312 1.41386 23.1714 1.55451C23.0307 1.69516 22.9517 1.88593 22.9517 2.08484V5.74234C21.1505 3.55359 17.6592 0.334839 12.7017 0.334839C7.45172 0.334839 4.30297 3.42359 4.17172 3.55484C4.03924 3.69701 3.96712 3.88506 3.97055 4.07936C3.97397 4.27366 4.05269 4.45905 4.1901 4.59646C4.32751 4.73387 4.5129 4.81259 4.7072 4.81601C4.9015 4.81944 5.08955 4.74732 5.23172 4.61484C5.25922 4.58484 8.06547 1.83484 12.7017 1.83484C17.5042 1.83484 20.8567 5.44609 22.283 7.33484H17.7017C17.5028 7.33484 17.312 7.41386 17.1714 7.55451C17.0307 7.69516 16.9517 7.88593 16.9517 8.08484C16.9517 8.28375 17.0307 8.47452 17.1714 8.61517C17.312 8.75582 17.5028 8.83484 17.7017 8.83484H23.7017C23.9006 8.83484 24.0914 8.75582 24.2321 8.61517C24.3727 8.47452 24.4517 8.28375 24.4517 8.08484V2.08484C24.4517 1.88593 24.3727 1.69516 24.2321 1.55451C24.0914 1.41386 23.9006 1.33484 23.7017 1.33484Z"
          fill="var(--text)"/>
</svg>
