<svg width="26" height="26" viewBox="0 0 26 26" fill="none" xmlns="http://www.w3.org/2000/svg">
    <path d="M13 0.25C10.4783 0.25 8.01321 0.997774 5.91648 2.39876C3.81976 3.79975 2.18556 5.79103 1.22054 8.12079C0.255524 10.4505 0.00303191 13.0141 0.494993 15.4874C0.986955 17.9607 2.20127 20.2325 3.98439 22.0156C5.76751 23.7987 8.03935 25.0131 10.5126 25.505C12.9859 25.997 15.5495 25.7445 17.8792 24.7795C20.209 23.8144 22.2003 22.1802 23.6012 20.0835C25.0022 17.9868 25.75 15.5217 25.75 13C25.746 9.61971 24.4015 6.379 22.0112 3.98877C19.621 1.59854 16.3803 0.25397 13 0.25ZM24.25 13C24.2524 15.7242 23.2619 18.356 21.4638 20.4025L5.59751 4.53625C7.22314 3.11223 9.22473 2.18687 11.3627 1.87096C13.5006 1.55504 15.6843 1.86196 17.6523 2.75497C19.6203 3.64797 21.2893 5.08923 22.4594 6.90619C23.6295 8.72316 24.2512 10.8389 24.25 13ZM1.75001 13C1.74757 10.2758 2.73814 7.64402 4.53626 5.5975L20.4025 21.4638C18.7769 22.8878 16.7753 23.8131 14.6374 24.129C12.4994 24.445 10.3157 24.138 8.34773 23.245C6.37971 22.352 4.71075 20.9108 3.54064 19.0938C2.37052 17.2768 1.74884 15.1611 1.75001 13Z"
          fill="var(--text)"/>
</svg>
