<svg width="31" height="21" viewBox="0 0 31 21" fill="none" xmlns="http://www.w3.org/2000/svg">
    <path d="M29.0356 11.8152C28.6932 11.5514 28.2944 11.3704 27.8705 11.2863C27.4466 11.2022 27.009 11.2172 26.5918 11.3302L20.9368 12.6302C21.1222 12.1383 21.1855 11.6089 21.1214 11.0872C21.0572 10.5655 20.8675 10.0672 20.5684 9.63492C20.2694 9.20266 19.87 8.84938 19.4045 8.60536C18.9389 8.36135 18.4212 8.23389 17.8956 8.2339H11.6381C11.1454 8.2325 10.6574 8.3289 10.2023 8.5175C9.74719 8.70611 9.33405 8.98318 8.98682 9.33265L6.08557 12.2339H2.39557C1.93144 12.2339 1.48632 12.4183 1.15813 12.7465C0.829943 13.0747 0.645569 13.5198 0.645569 13.9839V18.9839C0.645569 19.448 0.829943 19.8932 1.15813 20.2213C1.48632 20.5495 1.93144 20.7339 2.39557 20.7339H15.3956C15.4571 20.7339 15.5184 20.7264 15.5781 20.7114L23.5781 18.7114C23.6159 18.7014 23.6531 18.6888 23.6893 18.6739L28.5418 16.6089L28.5831 16.5902C29.0121 16.3759 29.3796 16.0559 29.6508 15.6604C29.922 15.2649 30.088 14.8069 30.1333 14.3294C30.1786 13.852 30.1016 13.3709 29.9095 12.9315C29.7175 12.492 29.4167 12.1087 29.0356 11.8177V11.8152ZM2.14557 18.9839V13.9839C2.14557 13.9176 2.17191 13.854 2.21879 13.8071C2.26568 13.7602 2.32926 13.7339 2.39557 13.7339H5.64557V19.2339H2.39557C2.32926 19.2339 2.26568 19.2076 2.21879 19.1607C2.17191 19.1138 2.14557 19.0502 2.14557 18.9839ZM27.9306 15.2339L23.1556 17.2677L15.3031 19.2339H7.14557V13.2952L10.0468 10.3927C10.2553 10.1831 10.5033 10.0169 10.7764 9.90385C11.0496 9.79078 11.3424 9.73301 11.6381 9.7339H17.8956C18.3597 9.7339 18.8048 9.91828 19.133 10.2465C19.4612 10.5747 19.6456 11.0198 19.6456 11.4839C19.6456 11.948 19.4612 12.3931 19.133 12.7213C18.8048 13.0495 18.3597 13.2339 17.8956 13.2339H14.3956C14.1967 13.2339 14.0059 13.3129 13.8652 13.4536C13.7246 13.5942 13.6456 13.785 13.6456 13.9839C13.6456 14.1828 13.7246 14.3736 13.8652 14.5142C14.0059 14.6549 14.1967 14.7339 14.3956 14.7339H18.3956C18.4519 14.734 18.5081 14.7277 18.5631 14.7152L26.9381 12.7889L26.9681 12.7814C27.2833 12.6955 27.6191 12.729 27.9111 12.8756C28.2031 13.0222 28.4306 13.2715 28.55 13.5757C28.6694 13.8798 28.6721 14.2173 28.5578 14.5234C28.4435 14.8295 28.2201 15.0825 27.9306 15.2339Z"
          fill="var(--text)"/>
    <path d="M23.5 0C22.9477 0 22.5 0.447715 22.5 1V7C22.5 7.55228 22.9477 8 23.5 8H26.8705C27.4228 8 27.8705 7.55228 27.8705 7V1C27.8705 0.447715 27.4228 0 26.8705 0H23.5Z"
          fill="var(--text)"/>
    <path d="M17.5 0C16.9477 0 16.5 0.447715 16.5 1V7C16.5 7.55228 16.9477 8 17.5 8H20.8705C21.4228 8 21.8705 7.55228 21.8705 7V1C21.8705 0.447715 21.4228 0 20.8705 0H17.5Z"
          fill="var(--text)"/>
</svg>
